<?xml version="1.0" encoding="UTF-8"?>
<svg id="Layer_1" data-name="Layer 1" xmlns="http://www.w3.org/2000/svg" xmlns:xlink="http://www.w3.org/1999/xlink" viewBox="0 0 1519.88 673.08">
  <defs>
    <style>
      .cls-1 {
        letter-spacing: .01em;
      }

      .cls-2 {
        letter-spacing: 0em;
      }

      .cls-3 {
        letter-spacing: .22em;
      }

      .cls-4 {
        letter-spacing: .22em;
      }

      .cls-5 {
        letter-spacing: 0em;
      }

      .cls-6 {
        letter-spacing: -.02em;
      }

      .cls-7 {
        letter-spacing: .02em;
      }

      .cls-8 {
        clip-path: url(#clippath);
      }

      .cls-9 {
        letter-spacing: .01em;
      }

      .cls-10 {
        stroke-width: 0px;
      }

      .cls-10, .cls-11 {
        fill: none;
      }

      .cls-12 {
        letter-spacing: .02em;
      }

      .cls-13 {
        font-family: SFPro-Regular, 'SF Pro';
        font-size: 83px;
        font-variation-settings: 'wdth' 100, 'opsz' 28, 'wght' 400;
      }

      .cls-13, .cls-14 {
        fill: #000;
      }

      .cls-15 {
        letter-spacing: 0em;
      }

      .cls-16 {
        letter-spacing: .17em;
      }

      .cls-17 {
        letter-spacing: -.09em;
      }

      .cls-18 {
        letter-spacing: .04em;
      }

      .cls-19 {
        letter-spacing: .04em;
      }

      .cls-20 {
        letter-spacing: 0em;
      }

      .cls-21 {
        letter-spacing: .41em;
      }

      .cls-22 {
        letter-spacing: .41em;
      }

      .cls-23 {
        letter-spacing: -.02em;
      }

      .cls-24 {
        letter-spacing: -.02em;
      }

      .cls-11 {
        stroke: #231f20;
      }

      .cls-25 {
        letter-spacing: -.11em;
      }

      .cls-26 {
        letter-spacing: 0em;
      }

      .cls-27 {
        letter-spacing: -.12em;
      }

      .cls-28 {
        letter-spacing: 0em;
      }

      .cls-29 {
        letter-spacing: -.01em;
      }

      .cls-30 {
        letter-spacing: .16em;
      }

      .cls-31 {
        letter-spacing: 0em;
      }

      .cls-32 {
        letter-spacing: .15em;
      }

      .cls-33 {
        letter-spacing: .15em;
      }

      .cls-34 {
        letter-spacing: .17em;
      }

      .cls-35 {
        letter-spacing: 0em;
      }

      .cls-36 {
        letter-spacing: 0em;
      }

      .cls-37 {
        letter-spacing: 0em;
      }

      .cls-38 {
        letter-spacing: 0em;
      }

      .cls-39 {
        letter-spacing: -.01em;
      }

      .cls-40 {
        letter-spacing: -.1em;
      }

      .cls-41 {
        letter-spacing: -.02em;
      }

      .cls-42 {
        letter-spacing: -.01em;
      }

      .cls-14 {
        font-family: SFPro-RegularItalic, 'SF Pro';
        font-size: 21px;
        font-style: italic;
        font-variation-settings: 'opsz' 28, 'YAXS' 400, 'wght' 400;
      }

      .cls-43 {
        letter-spacing: -.15em;
      }

      .cls-44 {
        letter-spacing: 0em;
      }

      .cls-45 {
        letter-spacing: .17em;
      }

      .cls-46 {
        letter-spacing: -.01em;
      }

      .cls-47 {
        letter-spacing: .17em;
      }

      .cls-48 {
        letter-spacing: -.03em;
      }

      .cls-49 {
        letter-spacing: -.02em;
      }

      .cls-50 {
        letter-spacing: -.03em;
      }

      .cls-51 {
        letter-spacing: -.03em;
      }

      .cls-52 {
        letter-spacing: .28em;
      }

      .cls-53 {
        letter-spacing: .28em;
      }

      .cls-54 {
        letter-spacing: -.02em;
      }

      .cls-55 {
        letter-spacing: 0em;
      }

      .cls-56 {
        letter-spacing: -.01em;
      }

      .cls-57 {
        letter-spacing: .13em;
      }
    </style>
    <clipPath id="clippath">
      <rect class="cls-10" width="1519.88" height="673.08"/>
    </clipPath>
  </defs>
  <rect class="cls-11" x="135.5" y="132.98" width="1169" height="211.4"/>
  <line class="cls-11" x1="108.5" y1="317.52" x2="108.5" y2="108"/>
  <line class="cls-11" x1="108.97" y1="108.5" x2="563.4" y2="108.5"/>
  <line class="cls-11" x1="81.5" y1="290.52" x2="81.5" y2="81"/>
  <line class="cls-11" x1="81.97" y1="81.5" x2="536.4" y2="81.5"/>
  <line class="cls-11" x1="54.5" y1="263.52" x2="54.5" y2="54"/>
  <line class="cls-11" x1="54.97" y1="54.5" x2="509.4" y2="54.5"/>
  <line class="cls-11" x1="27.5" y1="236.52" x2="27.5" y2="27"/>
  <line class="cls-11" x1="27.97" y1="27.5" x2="482.4" y2="27.5"/>
  <g class="cls-8">
    <line class="cls-11" x1=".5" y1="209.52" x2=".5"/>
    <line class="cls-11" x1=".97" y1=".5" x2="455.04" y2=".5"/>
  </g>
  <text class="cls-13" transform="translate(185.4 270.01)"><tspan class="cls-51" x="0" y="0">S</tspan><tspan class="cls-27" x="46.58" y="0">P</tspan><tspan class="cls-43" x="84.32" y="0">A</tspan><tspan class="cls-48" x="124.6" y="0">T</tspan><tspan class="cls-51" x="170.08" y="0">I</tspan><tspan class="cls-48" x="186.07" y="0">AL</tspan><tspan class="cls-25" x="276.85" y="0"> </tspan><tspan class="cls-50" x="284.82" y="0">RESO</tspan><tspan class="cls-48" x="479.71" y="0">NAN</tspan><tspan class="cls-51" x="640.29" y="0">C</tspan><tspan class="cls-55" x="694.57" y="0">E</tspan></text>
  <line class="cls-11" x1="1329.38" y1="169.01" x2="1329.38" y2="378.53"/>
  <line class="cls-11" x1="1328.81" y1="378.03" x2="823.68" y2="378.03"/>
  <line class="cls-11" x1="1356.38" y1="196.01" x2="1356.38" y2="405.53"/>
  <line class="cls-11" x1="1355.81" y1="405.03" x2="851.4" y2="405.03"/>
  <line class="cls-11" x1="1383.38" y1="223.01" x2="1383.38" y2="432.53"/>
  <line class="cls-11" x1="1382.81" y1="432.03" x2="878.4" y2="432.03"/>
  <line class="cls-11" x1="1410.38" y1="250.01" x2="1410.38" y2="459.53"/>
  <line class="cls-11" x1="1409.81" y1="459.03" x2="905.4" y2="459.03"/>
  <line class="cls-11" x1="1437.38" y1="277.01" x2="1437.38" y2="486.53"/>
  <line class="cls-11" x1="1436.81" y1="486.03" x2="932.4" y2="486.03"/>
  <text class="cls-14" transform="translate(171.08 376.8)"><tspan x="0" y="0">P</tspan><tspan class="cls-56" x="12.55" y="0">r</tspan><tspan x="19.44" y="0">esence</tspan><tspan class="cls-33" x="83.61" y="0"> </tspan><tspan x="91.83" y="0">de</tspan><tspan class="cls-39" x="114.52" y="0">t</tspan><tspan x="120.62" y="0">e</tspan><tspan class="cls-9" x="131.51" y="0">c</tspan><tspan x="142.31" y="0">tion</tspan><tspan class="cls-33" x="175.44" y="0"> </tspan><tspan class="cls-39" x="183.66" y="0">t</tspan><tspan x="189.75" y="0">echnology</tspan><tspan class="cls-33" x="282.33" y="0"> </tspan><tspan x="290.55" y="0">can</tspan><tspan class="cls-32" x="322.78" y="0"> </tspan><tspan x="330.99" y="0">be</tspan><tspan class="cls-33" x="353.56" y="0"> </tspan><tspan x="361.78" y="0">used</tspan><tspan class="cls-33" x="405.4" y="0"> </tspan><tspan class="cls-39" x="413.62" y="0">t</tspan><tspan x="419.71" y="0">o</tspan><tspan class="cls-33" x="430.95" y="0"> </tspan><tspan x="439.17" y="0">t</tspan><tspan class="cls-29" x="445.49" y="0">r</tspan><tspan x="452.35" y="0">ans</tspan><tspan class="cls-6" x="483.73" y="0">f</tspan><tspan x="489.56" y="0">orm</tspan><tspan class="cls-33" x="524.75" y="0"> </tspan><tspan x="532.96" y="0">the</tspan><tspan class="cls-33" x="561.56" y="0"> </tspan><tspan x="569.78" y="0">bui</tspan><tspan class="cls-1" x="597.01" y="0">l</tspan><tspan x="601.61" y="0">t </tspan></text>
  <text class="cls-14" transform="translate(195.08 400.8)"><tspan x="0" y="0">e</tspan><tspan class="cls-49" x="10.89" y="0">n</tspan><tspan x="21.75" y="0">vi</tspan><tspan class="cls-56" x="36.09" y="0">r</tspan><tspan x="42.97" y="0">onment</tspan><tspan class="cls-57" x="110.66" y="0"> </tspan><tspan x="118.54" y="0">in</tspan><tspan class="cls-39" x="134.1" y="0">t</tspan><tspan x="140.2" y="0">o</tspan><tspan class="cls-57" x="151.44" y="0"> </tspan><tspan x="159.31" y="0">a</tspan><tspan class="cls-57" x="169.75" y="0"> </tspan><tspan x="177.63" y="0">digi</tspan><tspan class="cls-28" x="209.82" y="0">t</tspan><tspan x="216.1" y="0">al</tspan><tspan class="cls-57" x="230.89" y="0"> </tspan><tspan x="238.77" y="0">in</tspan><tspan class="cls-39" x="254.34" y="0">t</tspan><tspan x="260.43" y="0">e</tspan><tspan class="cls-12" x="271.32" y="0">r</tspan><tspan class="cls-49" x="278.94" y="0">f</tspan><tspan x="284.89" y="0">ace,</tspan><tspan class="cls-57" x="322.14" y="0"> </tspan><tspan x="330.02" y="0">enabling</tspan><tspan class="cls-57" x="405.85" y="0"> </tspan><tspan x="413.73" y="0">mo</tspan><tspan class="cls-56" x="441.76" y="0">r</tspan><tspan x="448.65" y="0">e</tspan><tspan class="cls-57" x="459.54" y="0"> </tspan><tspan x="467.42" y="0">fri</tspan><tspan class="cls-9" x="485.23" y="0">c</tspan><tspan x="496.03" y="0">tionle</tspan><tspan class="cls-44" x="544.4" y="0">s</tspan><tspan x="554.02" y="0">s</tspan><tspan class="cls-57" x="563.74" y="0"> </tspan><tspan x="571.62" y="0">and </tspan></text>
  <text class="cls-14" transform="translate(220.07 424.81)"><tspan x="0" y="0">embodied</tspan><tspan class="cls-3" x="89.44" y="0"> </tspan><tspan x="99.09" y="0">Human-Compu</tspan><tspan class="cls-39" x="237.26" y="0">t</tspan><tspan x="243.36" y="0">er</tspan><tspan class="cls-4" x="261.4" y="0"> </tspan><tspan x="271.05" y="0">In</tspan><tspan class="cls-39" x="287.02" y="0">t</tspan><tspan x="293.12" y="0">e</tspan><tspan class="cls-29" x="304.01" y="0">r</tspan><tspan x="310.87" y="0">a</tspan><tspan class="cls-9" x="321.31" y="0">c</tspan><tspan x="332.11" y="0">tion;</tspan><tspan class="cls-3" x="370.59" y="0"> </tspan><tspan x="380.24" y="0">but</tspan><tspan class="cls-3" x="409.45" y="0"> </tspan><tspan x="419.1" y="0">this</tspan><tspan class="cls-3" x="450.87" y="0"> </tspan><tspan class="cls-42" x="460.52" y="0">t</tspan><tspan x="466.61" y="0">echnology</tspan><tspan class="cls-4" x="559.2" y="0"> </tspan><tspan x="568.84" y="0">also </tspan></text>
  <text class="cls-14" transform="translate(244.08 448.81)"><tspan x="0" y="0">poses</tspan><tspan class="cls-21" x="53.23" y="0"> </tspan><tspan x="66.84" y="0">major</tspan><tspan class="cls-22" x="116.74" y="0"> </tspan><tspan x="130.35" y="0">pri</tspan><tspan class="cls-38" x="153.51" y="0">v</tspan><tspan x="163.35" y="0">a</tspan><tspan class="cls-5" x="173.79" y="0">c</tspan><tspan x="184.3" y="0">y</tspan><tspan class="cls-22" x="194.31" y="0"> </tspan><tspan x="207.92" y="0">concerns</tspan><tspan class="cls-21" x="290.51" y="0"> </tspan><tspan x="304.12" y="0">when</tspan><tspan class="cls-21" x="352.48" y="0"> </tspan><tspan x="366.09" y="0">used</tspan><tspan class="cls-21" x="409.71" y="0"> </tspan><tspan x="423.32" y="0">nonconsensually</tspan><tspan class="cls-22" x="571.92" y="0"> </tspan><tspan class="cls-41" x="585.54" y="0">b</tspan><tspan x="596.75" y="0">y </tspan></text>
  <text class="cls-14" transform="translate(269.07 472.81)"><tspan x="0" y="0">p</tspan><tspan class="cls-56" x="11.66" y="0">r</tspan><tspan x="18.54" y="0">e</tspan><tspan class="cls-5" x="29.43" y="0">d</tspan><tspan x="41.17" y="0">a</tspan><tspan class="cls-39" x="51.61" y="0">t</tspan><tspan x="57.71" y="0">ory</tspan><tspan class="cls-45" x="86.11" y="0"> </tspan><tspan x="94.81" y="0">ad</tspan><tspan class="cls-20" x="117.05" y="0">v</tspan><tspan x="126.91" y="0">e</tspan><tspan class="cls-12" x="137.8" y="0">r</tspan><tspan x="145.42" y="0">tise</tspan><tspan class="cls-15" x="176.7" y="0">r</tspan><tspan x="183.67" y="0">s.</tspan><tspan class="cls-47" x="198.75" y="0"> </tspan><tspan class="cls-40" x="207.44" y="0">T</tspan><tspan x="217.76" y="0">o</tspan><tspan class="cls-45" x="229" y="0"> </tspan><tspan class="cls-29" x="237.7" y="0">r</tspan><tspan x="244.56" y="0">aise</tspan><tspan class="cls-47" x="279.96" y="0"> </tspan><tspan class="cls-54" x="288.66" y="0">a</tspan><tspan class="cls-36" x="298.74" y="0">w</tspan><tspan x="313.44" y="0">a</tspan><tspan class="cls-56" x="323.88" y="0">r</tspan><tspan x="330.76" y="0">ene</tspan><tspan class="cls-44" x="363.76" y="0">s</tspan><tspan x="373.37" y="0">s</tspan><tspan class="cls-47" x="383.1" y="0"> </tspan><tspan x="391.79" y="0">of</tspan><tspan class="cls-45" x="409.34" y="0"> </tspan><tspan x="418.04" y="0">i</tspan><tspan class="cls-35" x="422.39" y="0">t</tspan><tspan x="428.63" y="0">s</tspan><tspan class="cls-45" x="438.35" y="0"> </tspan><tspan x="447.05" y="0">p</tspan><tspan class="cls-28" x="458.71" y="0">o</tspan><tspan class="cls-39" x="469.9" y="0">t</tspan><tspan x="476" y="0">ent</tspan><tspan class="cls-26" x="504.43" y="0">i</tspan><tspan x="508.76" y="0">al</tspan><tspan class="cls-47" x="523.54" y="0"> </tspan><tspan x="532.24" y="0">beneﬁ</tspan><tspan class="cls-35" x="587.57" y="0">t</tspan><tspan x="593.82" y="0">s </tspan></text>
  <text class="cls-14" transform="translate(294.06 496.82)"><tspan x="0" y="0">and</tspan><tspan class="cls-53" x="33.46" y="0"> </tspan><tspan class="cls-5" x="44.47" y="0">d</tspan><tspan x="56.21" y="0">ange</tspan><tspan class="cls-15" x="100.44" y="0">r</tspan><tspan x="107.41" y="0">s,</tspan><tspan class="cls-53" x="122.48" y="0"> </tspan><tspan x="133.49" y="0">I</tspan><tspan class="cls-52" x="138.25" y="0"> </tspan><tspan x="149.26" y="0">p</tspan><tspan class="cls-56" x="160.92" y="0">r</tspan><tspan x="167.8" y="0">opose</tspan><tspan class="cls-53" x="222.55" y="0" xml:space="preserve">  </tspan><tspan x="244.57" y="0">an</tspan><tspan class="cls-53" x="266.22" y="0"> </tspan><tspan x="277.23" y="0">in</tspan><tspan class="cls-39" x="292.8" y="0">t</tspan><tspan x="298.89" y="0">e</tspan><tspan class="cls-29" x="309.78" y="0">r</tspan><tspan x="316.64" y="0">a</tspan><tspan class="cls-9" x="327.08" y="0">c</tspan><tspan x="337.89" y="0">ti</tspan><tspan class="cls-20" x="348.56" y="0">v</tspan><tspan x="358.42" y="0">e</tspan><tspan class="cls-52" x="369.31" y="0"> </tspan><tspan x="380.32" y="0">in</tspan><tspan class="cls-5" x="395.89" y="0">s</tspan><tspan class="cls-31" x="405.54" y="0">t</tspan><tspan x="411.83" y="0">al</tspan><tspan class="cls-2" x="426.61" y="0">l</tspan><tspan x="430.9" y="0">ation</tspan><tspan class="cls-52" x="474.47" y="0"> </tspan><tspan x="485.48" y="0">consi</tspan><tspan class="cls-5" x="532.57" y="0">s</tspan><tspan x="542.23" y="0">ting</tspan><tspan class="cls-53" x="575.81" y="0"> </tspan><tspan x="586.82" y="0">of </tspan></text>
  <text class="cls-14" transform="translate(318.06 520.82)"><tspan x="0" y="0">s</tspan><tspan class="cls-24" x="9.72" y="0">e</tspan><tspan class="cls-20" x="20.21" y="0">v</tspan><tspan x="30.07" y="0">e</tspan><tspan class="cls-29" x="40.96" y="0">r</tspan><tspan x="47.83" y="0">al</tspan><tspan class="cls-18" x="62.61" y="0"> </tspan><tspan x="68.54" y="0">obje</tspan><tspan class="cls-9" x="106.61" y="0">c</tspan><tspan class="cls-35" x="117.41" y="0">t</tspan><tspan x="123.66" y="0">s</tspan><tspan class="cls-18" x="133.38" y="0"> </tspan><tspan x="139.3" y="0">called </tspan></text>
  <text class="cls-14" transform="translate(526.54 520.82)"><tspan class="cls-15" x="0" y="0">Re</tspan><tspan x="23.53" y="0">sonato</tspan><tspan class="cls-29" x="83.71" y="0">r</tspan><tspan x="90.58" y="0">s</tspan></text>
  <text class="cls-14" transform="translate(646.55 520.82)"><tspan x="0" y="0">,</tspan><tspan class="cls-18" x="5.35" y="0"> </tspan><tspan x="11.28" y="0">which</tspan><tspan class="cls-19" x="63.83" y="0"> </tspan><tspan x="69.76" y="0">will</tspan><tspan class="cls-18" x="97.67" y="0"> </tspan><tspan x="103.6" y="0">a</tspan><tspan class="cls-9" x="114.03" y="0">c</tspan><tspan x="124.84" y="0">ti</tspan><tspan class="cls-37" x="135.51" y="0">v</tspan><tspan x="145.35" y="0">a</tspan><tspan class="cls-39" x="155.79" y="0">t</tspan><tspan x="161.89" y="0">e</tspan><tspan class="cls-18" x="172.78" y="0"> </tspan><tspan x="178.7" y="0">pe</tspan><tspan class="cls-15" x="201.25" y="0">r</tspan><tspan x="208.22" y="0">sonali</tspan><tspan class="cls-23" x="259.53" y="0">z</tspan><tspan x="269.12" y="0">ed </tspan></text>
  <text class="cls-14" transform="translate(343.05 544.82)"><tspan class="cls-29" x="0" y="0">e</tspan><tspan x="10.6" y="0">xperiences</tspan><tspan class="cls-17" x="107.77" y="0"> </tspan><tspan x="110.86" y="0">as</tspan><tspan class="cls-17" x="131.02" y="0"> </tspan><tspan x="134.11" y="0">pa</tspan><tspan class="cls-7" x="156.21" y="0">r</tspan><tspan x="163.83" y="0">ticipan</tspan><tspan class="cls-35" x="222.74" y="0">t</tspan><tspan x="228.98" y="0">s</tspan><tspan class="cls-17" x="238.7" y="0"> </tspan><tspan x="241.8" y="0">app</tspan><tspan class="cls-56" x="275.55" y="0">r</tspan><tspan x="282.44" y="0">oach</tspan><tspan class="cls-17" x="326.07" y="0"> </tspan><tspan x="329.16" y="0">them.</tspan><tspan class="cls-17" x="379.9" y="0"> </tspan><tspan x="383" y="0">Visuali</tspan><tspan class="cls-46" x="440.66" y="0">z</tspan><tspan x="450.32" y="0">ations</tspan><tspan class="cls-17" x="503.61" y="0"> </tspan><tspan x="506.7" y="0">p</tspan><tspan class="cls-56" x="518.36" y="0">r</tspan><tspan x="525.24" y="0">esenting </tspan></text>
  <text class="cls-14" transform="translate(367.05 568.83)"><tspan x="0" y="0">the</tspan><tspan class="cls-16" x="28.6" y="0"> </tspan><tspan class="cls-56" x="37.13" y="0">r</tspan><tspan x="44.01" y="0">esu</tspan><tspan class="cls-1" x="75.83" y="0">l</tspan><tspan class="cls-35" x="80.43" y="0">t</tspan><tspan x="86.67" y="0">s</tspan><tspan class="cls-34" x="96.39" y="0"> </tspan><tspan x="104.9" y="0">of</tspan><tspan class="cls-16" x="122.45" y="0"> </tspan><tspan class="cls-56" x="130.98" y="0">r</tspan><tspan x="137.86" y="0">esea</tspan><tspan class="cls-56" x="179.8" y="0">r</tspan><tspan x="186.69" y="0">ch</tspan><tspan class="cls-16" x="208.64" y="0"> </tspan><tspan x="217.17" y="0">in</tspan><tspan class="cls-16" x="232.74" y="0"> </tspan><tspan x="241.27" y="0">unethical</tspan><tspan class="cls-34" x="322" y="0"> </tspan><tspan x="330.51" y="0">use</tspan><tspan class="cls-16" x="362.32" y="0"> </tspan><tspan x="370.85" y="0">of</tspan><tspan class="cls-16" x="388.4" y="0"> </tspan><tspan x="396.93" y="0">this</tspan><tspan class="cls-34" x="428.71" y="0"> </tspan><tspan class="cls-39" x="437.22" y="0">t</tspan><tspan x="443.31" y="0">echnology</tspan><tspan class="cls-30" x="535.9" y="0"> </tspan><tspan x="544.41" y="0">will</tspan><tspan class="cls-16" x="572.32" y="0"> </tspan><tspan x="580.85" y="0">be </tspan></text>
  <text class="cls-14" transform="translate(392.04 592.83)"><tspan x="0" y="0">disp</tspan><tspan class="cls-5" x="37.53" y="0">l</tspan><tspan class="cls-49" x="41.81" y="0">a</tspan><tspan class="cls-20" x="51.9" y="0">y</tspan><tspan x="61.78" y="0">ed in jux</tspan><tspan class="cls-28" x="135.43" y="0">t</tspan><tspan x="141.72" y="0">aposition. </tspan></text>
</svg>