<svg width="216" height="216" viewBox="0 0 216 216" fill="none" xmlns="http://www.w3.org/2000/svg">
<path d="M70.5 58C28.8333 91.3333 24.6667 137.167 58 195.5M145.5 158C187.167 124.667 191.333 79.7305 158 21.3972M108 8C81.4784 8 56.043 18.5357 37.2893 37.2893C18.5357 56.043 8 81.4784 8 108C8 134.522 18.5357 159.957 37.2893 178.711C56.043 197.464 81.4784 208 108 208C134.522 208 159.957 197.464 178.711 178.711C197.464 159.957 208 134.522 208 108C208 81.4784 197.464 56.043 178.711 37.2893C159.957 18.5357 134.522 8 108 8ZM108 45.5C91.424 45.5 75.5269 52.0848 63.8058 63.8058C52.0848 75.5269 45.5 91.424 45.5 108C45.5 124.576 52.0848 140.473 63.8058 152.194C75.5269 163.915 91.424 170.5 108 170.5C124.576 170.5 140.473 163.915 152.194 152.194C163.915 140.473 170.5 124.576 170.5 108C170.5 91.424 163.915 75.5269 152.194 63.8058C140.473 52.0848 124.576 45.5 108 45.5Z" stroke="#CB6E31" stroke-width="15" stroke-linejoin="round"/>
</svg>
