<?xml version="1.0" encoding="UTF-8"?>
<svg id="Layer_1_Layer_2_Hue_Saturation_1_Image" data-name="Layer 1 + Layer 2 + Hue/Saturation 1 Image" xmlns="http://www.w3.org/2000/svg" width="145.92" height="72" version="1.1" viewBox="0 0 145.92 72">
  <defs>
    <style>
      .cls-1 {
        fill: #000;
      }

      .cls-1, .cls-2 {
        stroke-width: 0px;
      }

      .cls-3 {
        opacity: .1;
      }

      .cls-2 {
        fill: #fff;
      }
    </style>
  </defs>
  <g class="cls-3">
    <path class="cls-1" d="M107.39,31.24c-.73-.25-.87-.85-.54-2.28h26.83c0,.62,0,1.22,0,1.81,0,.11-.11.3-.18.3-.68.03-.54.52-.54.92,0,12.31,0,24.62-.02,36.93,0,.7.19.92.89.89,1.46-.05,2.92-.04,4.38,0,.58.01.8-.15.78-.76-.03-1.11,0-1.11-1.07-1.3-1.43-.25-2.48-1.44-2.54-2.95-.04-.9-.03-1.8,0-2.71.08-1.9,1.3-3.09,3.2-3.13.93-.02,1.86-.03,2.79,0,1.74.05,2.99,1.29,3.04,3.03.03.82.02,1.64.01,2.47-.02,2.06-1.14,3.23-3.22,3.35-.13,0-.26.03-.51.05,0,.46.02.9,0,1.34-.03.45.16.61.6.61,1.09-.02,2.18-.02,3.26,0,.89,0,1.38.41,1.38,1.08,0,.66-.51,1.09-1.38,1.1-2.15.02-4.3.01-6.45.01-45.31,0-90.62,0-135.93,0-.37,0-.75.02-1.11-.02-.7-.07-1.1-.52-1.06-1.15.05-.67.45-1.01,1.1-1.02,1.3-.02,2.6-.01,3.9-.02.1,0,.21-.03.38-.06v-2.47c-.21-.05-.44-.09-.66-.15-1.22-.3-2.22-1.27-2.28-2.46-.09-1.77-.02-3.54-.02-5.23.36-.18.67-.34.98-.48.11-.05.32-.09.34-.05.06.12.14.34.08.41-.16.2-.37.38-.59.51-.52.32-.7.79-.61,1.36.07.51.35.75.89.59.71-.21,1.02,0,1.04.73.01.53-.03,1.06.02,1.59.06.77.54,1,1.27.73.29-.11.67-.11.96,0,.7.26,1.23.09,1.26-.62.06-1.48.05-2.97-.02-4.45-.01-.27-.45-.71-.74-.75-.83-.1-1.67-.04-2.61-.04-.2-.76-.86-.98-1.88-.73.65-.96,1.42-1.4,2.38-1.47.74-.05,1.49-.04,2.23,0,1.53.08,2.77,1.28,2.83,2.82.06,1.59.05,3.18,0,4.77-.04,1.32-.98,2.41-2.27,2.75-.23.06-.46.1-.75.16v2.49h3.09c0-.84,0-1.65,0-2.46,0-2.39.89-3.31,3.28-3.42.1,0,.2-.03.34-.06V31.26c-1.31-.43-.38-1.48-.77-2.27h27.01c0,.59,0,1.19,0,1.79,0,.07-.03.2-.07.21-1.03.26-.6,1.09-.6,1.67-.02,11.96-.02,23.93-.02,35.89v1.17h6.34v-2.44c-.14-.05-.28-.11-.43-.15-1.66-.35-2.58-1.41-2.64-3.11-.03-.98,0-1.96,0-2.94,0-1.88-.01-3.77,0-5.65.01-2.03,1.26-3.28,3.27-3.3.53,0,1.06-.01,1.59,0,1.75.05,2.98,1.27,3.05,3.02.01.29-.04.59.02.87.05.23.22.44.34.66.1-.23.22-.46.31-.7.03-.09,0-.21,0-.32,0-11.51,0-23.03,0-34.54,0-.28.03-.57.05-.91.31.08.55.14.89.22v-3.43h8.32c.06-.36.11-.63.18-1.01h1.99c0-.7,0-1.29,0-1.89,0-.08-.01-.21-.05-.22-1.23-.48-.38-1.49-.71-2.35.66,0,1.18,0,1.7,0,1.72,0,3.45,0,5.17,0q.93,0,1.06-.9c1.51-.4,2.01-.22,2.23.84h6.8c.04-.29.07-.55.11-.89h2.07c.04.26.09.56.16.92h7.54c.4,1.29.23,2.09-.46,2.3-.02.05-.06.09-.06.14.02.63-.19,1.47.13,1.83.31.35,1.18.19,1.86.26.04.25.09.53.15.88h7.65c.02.32.03.57.05.98.27-.11.48-.19.68-.27.15-.06.3-.11.44-.16-.02.19.03.43-.07.56-.13.18-.37.29-.57.42-.47.32-.62.78-.52,1.32.09.5.38.8.9.55.57-.28.65.1.72.47.04.23,0,.48,0,.71,0,11.94,0,23.88,0,35.81v.61c-.52.17-.99.25-1.37.48-.15.09-.12.49-.17.75.22-.06.44-.13.66-.18.15-.04.3-.06.45-.08-.02.17.02.38-.07.5-.14.18-.37.3-.56.43-.51.34-.69.85-.53,1.38.07.24.43.49.7.55.33.07.7-.05,1.17-.11.09-.57.59-.62,1.18-.58.58.04,1.17-.01,1.75.02,1.1.06,2.11.47,2.56,1.48.42.95,1.02.98,1.89.8V31.24ZM65.03,13.8v55.99c2.15,0,4.24,0,6.33,0,1.51,0,1.33.21,1.34-1.37,0-1.9,0-3.8,0-5.72h2.2c0,.32,0,.58,0,.84,0,1.83,0,3.66,0,5.49,0,.47.01.81.66.8.6-.02.61-.33.61-.77-.01-1.78,0-3.55,0-5.33,0-.33,0-.67,0-1.01h2.19c0,2.11.03,4.15-.02,6.19-.01.69.15.92.87.91,1.93-.05,3.87-.02,5.81-.02q1.07,0,1.08-1.08c0-17.98,0-35.96,0-53.94v-.96h-21.06ZM123.04,62.69c0,.33,0,.62,0,.9,0,1.8.03,3.61-.01,5.41-.02.65.21.81.82.8,1.8-.03,3.61-.01,5.41-.01h1.45V31.2h-21.04v1.1c0,6.39,0,12.78,0,19.17,0,3.79,0,7.59,0,11.38,0,.43.05.69.54.88,1.28.51,1.93,1.51,1.94,2.91,0,1.02,0,2.04,0,3.07h5.27v-7.03h2.16c0,.33,0,.61,0,.9,0,1.75,0,3.5,0,5.25,0,1.07.15,1.16,1.32.78v-6.92h2.15ZM16.24,31.16v32.59c.87.16,1.67.31,2.49.46.03-.49.06-.98.09-1.55.63,0,1.21-.02,1.78.02.13,0,.35.2.35.32.03,1.02.02,2.05.02,3.08-.43.04-.74.08-1.08.11v3.61c1.12,0,2.18-.04,3.23.01.65.03.81-.21.8-.82-.04-1.88-.03-3.77,0-5.65,0-.23.23-.64.4-.66.56-.08,1.14-.03,1.81-.03v7.05c1.22.19,1.23.18,1.23-.92,0-1.46,0-2.92,0-4.38q0-1.89,1.89-1.76c.07,0,.15.04.34.11v6.97h7.62V31.16h-20.97ZM88.29,31.92c0,.65.02,1.15,0,1.65-.02.45.17.62.61.6.47-.02.93,0,1.48,0,0,1.09.02,2.07-.02,3.04,0,.15-.3.4-.48.42-.51.06-1.03.02-1.51.02v2.25h1.98v3.42h-2v2.23c.54,0,1.04-.04,1.53.02.18.02.48.27.49.42.05.97.02,1.95.02,3.04h-2.04v2.24h1.97v3.47h-1.97v2.22h1.97v3.48h-1.91c-.06.13-.1.17-.1.22,0,2.86,0,5.73-.02,8.59,0,.5.27.55.66.54,1.51,0,3.02,0,4.54,0,.79,0,1.57,0,2.37,0,0-1.93,0-3.76,0-5.59,0-.9.3-1.72,1.02-2.24.61-.44.69-.95.69-1.62-.01-12.79,0-25.57,0-38.36,0-.64-.05-1.28.02-1.91.08-.77-.25-.92-.95-.91-2.47.04-4.93.01-7.4.02-.28,0-.57.03-.87.04v3.52c.53,0,1-.04,1.47.02.2.02.53.24.53.38.05,1,.02,2,.02,3.11h-2.02v2.21h1.98v3.45h-2.04ZM62.73,37.62h-1.98v-3.48h1.96v-2.16c-.69-.03-1.33-.07-1.97-.1v-3.38c.69-.03,1.33-.07,1.95-.1v-2.14c-.69-.03-1.31-.06-1.95-.09v-3.43h1.96v-3.49h-9.18c0,.37,0,.68,0,.99,0,11.69,0,23.39,0,35.08,0,.32-.04.65.02.95.04.17.23.39.4.44.69.24,1.39.42,2.11.63.18-.35,1.85-.64,2.16-.29.05.05.08.14.08.22,0,1.02,0,2.05,0,3.09-.49.04-.87.07-1.27.1v2.12c.44.04.82.08,1.22.11v3.36c-.74.05-1.47-.04-2.09.17-.87.3-1.66.82-2.59,1.3v2.11c.1.05.14.1.19.1,2.84.01,5.67.02,8.51.04.46,0,.5-.26.5-.62,0-2.7-.01-5.41,0-8.11,0-.48-.14-.68-.63-.65-.46.03-.93,0-1.38,0v-3.52h1.94v-2.2h-2.01c0-1.06-.02-2.04.02-3.01,0-.16.3-.41.48-.43.49-.06.99-.02,1.52-.02v-2.19c-.68-.03-1.33-.06-2.02-.1,0-1.04-.03-1.99.03-2.94,0-.17.33-.42.54-.45.48-.07.98-.02,1.46-.02v-2.25h-1.95v-3.39c.69-.03,1.32-.06,1.97-.09v-2.2ZM48.61,56.55q-.15-2.21-2.33-2.2c-.05,0-.11,0-.16,0-.9.02-1.18.29-1.19,1.2-.01,1.32,0,2.65,0,3.97,0,1.48-.02,2.97.02,4.45.02.88.5,1.12,1.31.83.3-.11.7-.04,1.02.07.48.18.69.16.67-.43-.03-1.16-.04-2.33-.02-3.5.01-.71.06-1.42.17-2.12.12-.77.34-1.52.51-2.27ZM54.76,61.97h0c0-.48,0-.95,0-1.43,0-1.46-.15-1.59-1.58-1.63-.3,0-.69-.11-.89-.31-.82-.8-1.63-.64-1.96.44-.11.35-.19.72-.2,1.08-.02,1.25-.02,2.49,0,3.74,0,.96.75,1.47,1.61,1.05.51-.25.86-.29,1.38,0,.82.45,1.61-.09,1.64-1.03.02-.64,0-1.27,0-1.91ZM104.89,69.73c.06-.7.32-1.25,1.06-1.32.95-.09,1.11.69,1.33,1.38.57,0,1.1,0,1.63,0,.63,0,1.01-.3,1.03-.95.02-.74.02-1.48,0-2.23-.02-.6-.37-.92-.97-.92-1.51,0-3.02-.01-4.53,0-.64,0-.97.36-.97,1,0,.61-.01,1.22,0,1.83.01,1.04.29,1.29,1.43,1.21ZM101.28,68.36c-.15-2.02-.09-3.9,2.12-4.87-.33-.12-.58-.16-.83-.17-1.11,0-2.23,0-3.34,0-.9,0-1.17.29-1.18,1.2-.01,1.3,0,2.6,0,3.9,0,1.22.47,1.56,1.75,1.23.03-.85.51-1.28,1.49-1.31ZM142.21,63.38c0-.42,0-.85,0-1.27-.01-.61-.34-.94-.94-.95-.93-.02-1.85-.03-2.78,0-.56.01-.89.35-.91.91-.03.87-.07,1.75.02,2.62.04.33.4.7.71.89.41.24.6-.09.78-.47.31-.64,1.16-.65,1.43.02.22.55.58.66.96.44.31-.17.58-.56.68-.91.12-.39.03-.84.03-1.26ZM16.24,69.71c1.24.18,1.39.05,1.39-1.14,0-.56,0-1.11,0-1.67,0-.55-.23-.85-.8-.85-1.19,0-2.38,0-3.57,0-.47,0-.75.22-.75.72,0,.77-.05,1.54.03,2.3.03.26.38.58.65.68.39.15.68,0,.85-.51.12-.35.61-.72,1-.81.54-.12.93.28,1.07.84.04.15.08.3.11.44ZM47.58,69.79c1.17,0,2.25.02,3.33-.02.14,0,.39-.27.4-.43.04-.68.02-1.36.02-2.02-.53-.12-1.02-.13-1.39-.34-.83-.49-1.45.25-2.18.27-.06,0-.16.21-.16.32-.02.71,0,1.42,0,2.22Z"/>
    <path class="cls-1" d="M34.96,10.74c2.31,0,4.61,0,6.92,0,.24,0,.55-.08.7.04.34.28.8.64.82.99.02.35-.39.81-.73,1.05-.26.18-.72.1-1.09.1-4.56,0-9.12,0-13.68,0-.19,0-.37,0-.56-.02-.68-.07-1.11-.42-1.09-1.12.02-.7.45-1.04,1.14-1.05.85,0,1.7,0,2.55,0,1.67,0,3.34,0,5.01,0Z"/>
    <path class="cls-1" d="M114.62,13.15c1.19,0,2.39,0,3.58,0,.88,0,1.36.41,1.37,1.1,0,.68-.5,1.09-1.37,1.1-2.39.01-4.78.01-7.16,0-.92,0-1.44-.44-1.41-1.14.03-.66.53-1.05,1.41-1.05,1.19,0,2.39,0,3.58,0Z"/>
    <path class="cls-1" d="M43.48,8.58c-1.14,0-2.28,0-3.42,0-.82,0-1.31-.4-1.33-1.04-.02-.68.48-1.13,1.34-1.13,2.3-.01,4.61-.01,6.91,0,.86,0,1.35.45,1.32,1.13-.02.66-.49,1.04-1.33,1.05-1.17.01-2.33,0-3.5,0Z"/>
    <path class="cls-1" d="M109.38,8.83c1.17,0,2.33-.01,3.5,0,.76.01,1.21.41,1.23,1.06.02.62-.44,1.09-1.19,1.1-2.38.02-4.77.03-7.15.01-.75,0-1.22-.45-1.24-1.07-.02-.65.48-1.09,1.27-1.1,1.19-.01,2.38,0,3.58,0h0Z"/>
    <path class="cls-1" d="M118.62,8.83c.48,0,.95-.02,1.43,0,.65.03,1.04.41,1.06,1.05.03.61-.34,1.05-.94,1.08-1.05.06-2.11.06-3.16-.01-.6-.04-.95-.49-.9-1.1.04-.59.37-.99,1.01-1.01.5-.02,1,0,1.5,0,0,0,0,0,0,0Z"/>
    <path class="cls-1" d="M52.8,8.56c-.5,0-1,.03-1.5,0-.62-.04-.96-.42-.99-1.03-.02-.61.31-1.05.92-1.08,1.05-.06,2.11-.07,3.16,0,.6.04.93.48.9,1.1-.02.61-.38.98-.99,1.02-.5.04-1,0-1.5,0,0,0,0,0,0,0Z"/>
    <path class="cls-1" d="M100.36,17.04v2.01s-.1,0-.15.01v-2s.1-.02.15-.02Z"/>
    <path class="cls-1" d="M50.55,18.37c.25-.3.49-.61.75-.9.03-.03.23.03.26.09.05.11.08.3.01.37-.23.24-.5.44-.75.65-.09-.07-.18-.14-.27-.22Z"/>
    <path class="cls-2" d="M65.03,13.8h21.06v.96c0,17.98,0,35.96,0,53.94q0,1.08-1.08,1.08c-1.94,0-3.87-.03-5.81.02-.73.02-.89-.22-.87-.91.04-2.04.02-4.08.02-6.19h-2.19c0,.34,0,.67,0,1.01,0,1.78,0,3.55,0,5.33,0,.44,0,.75-.61.77-.65.02-.66-.33-.66-.8.01-1.83,0-3.66,0-5.49,0-.26,0-.52,0-.84h-2.2c0,1.92,0,3.82,0,5.72,0,1.58.18,1.36-1.34,1.37-2.09.01-4.18,0-6.33,0V13.8ZM69.69,60.38v-3.37h-2.07v3.37h2.07ZM72.18,60.36h2.11v-3.35h-2.11v3.35ZM67.61,26.17h2.1v-3.37h-2.1v3.37ZM74.3,22.82h-2.09v3.33h2.09v-3.33ZM76.79,22.85v3.31h2.14c0-.59,0-1.11,0-1.63q0-1.9-1.93-1.76s-.1.04-.2.08ZM67.61,28.5v3.38h2.1v-3.38h-2.1ZM74.28,31.89v-3.38h-2.08v3.38h2.08ZM78.87,31.9v-3.38h-2.08v3.38h2.08ZM78.87,56.94c-.61,0-1.14-.02-1.66.01-.16.01-.45.18-.46.28-.03,1.04-.02,2.08-.02,3.13h2.14v-3.43ZM67.61,54.66h2.1v-3.38h-2.1v3.38ZM74.34,54.66c0-.67.01-1.3,0-1.92-.04-1.72.34-1.48-1.58-1.5-.08,0-.18-.03-.23.01-.14.12-.36.26-.37.39-.03.99-.02,1.99-.02,3.02h2.2ZM78.87,54.67v-3.38h-2.1v3.38h2.1ZM67.56,62.68c0,1.05-.02,2.02.02,2.99,0,.15.25.41.4.43.57.05,1.14.02,1.73.02v-3.44h-2.15ZM67.59,48.94h2.13v-3.32h-2.13v3.32ZM74.28,48.96v-3.35h-2.1v3.35h2.1ZM76.78,45.6v3.35h2.1v-3.35h-2.1ZM67.59,20.46h2.13v-3.32h-2.13v3.32ZM78.9,17.12h-2.11v3.32h2.11v-3.32ZM74.29,20.46v-3.34h-2.1v3.34h2.1ZM81.34,66.07h2.15c0-.57,0-1.09,0-1.61q0-1.9-1.9-1.8c-.07,0-.14.05-.25.09v3.32ZM83.48,54.68c0-.6,0-1.13,0-1.65q0-1.93-1.95-1.78s-.1.04-.17.06v3.36h2.12ZM81.35,60.42c.61,0,1.11.03,1.61-.02.18-.02.49-.21.49-.33.04-1.02.02-2.04.02-3.08h-2.12v3.43ZM83.48,26.17c0-.68,0-1.31,0-1.93-.03-1.69.3-1.46-1.53-1.48-.08,0-.18-.03-.23.01-.15.11-.39.24-.4.37-.03,1.02-.02,2.04-.02,3.04h2.18ZM81.3,49.01c.64,0,1.2.03,1.74-.02.16-.01.41-.26.42-.41.04-.97.02-1.95.02-3.02-.64,0-1.2-.03-1.74.02-.16.02-.41.27-.42.42-.04.97-.02,1.95-.02,3.02ZM81.3,31.93c.68,0,1.21.03,1.73-.02.16-.02.42-.25.43-.4.04-.99.02-1.99.02-3.06-.64,0-1.17-.04-1.68.02-.18.02-.47.28-.47.44-.04.97-.02,1.94-.02,3.02ZM81.3,20.41c2.15.37,2.19.34,2.19-1.61,0-.08,0-.16,0-.24,0-1.64-.03-1.68-1.68-1.46-.19.03-.48.32-.49.51-.05.92-.02,1.85-.02,2.81ZM81.35,34.21v2.24c.57-.08.82.13.78.69,0,.16.22.33.34.49.12-.16.31-.3.35-.47.07-.32-.06-.71.47-.76.08,0,.16-.24.18-.38.26-1.71.08-1.9-1.61-1.85-.15,0-.3.03-.51.05ZM78.79,37.17v-2.94h-2.1c.05.91.1,1.74.14,2.57.78-.62,1.31-.4,1.96.38ZM74.28,36.29v-2.06h-2.09v2.54c.69-.16,1.34-.3,2.09-.48ZM69.72,34.23h-2.12v2.14c.73.09,1.41.17,2.12.26v-2.39ZM76.73,43.24q2.2.29,2.2-1.73c0-.29.01-.58,0-.87-.01-.23-.05-.45-.08-.68-.08,0-.16.02-.24.02v1.88h-1.19c0-.58.02-1.08-.01-1.58,0-.13-.18-.25-.28-.38-.08.11-.23.22-.24.34-.07.99-.11,1.98-.16,3.01ZM72.2,41.9v1.36h2.27c-.16-.66-.3-1.22-.43-1.78-.07.09-.14.17-.21.26-.52.05-1.04.1-1.62.15ZM69.71,42.07c-.38-.18-.7-.33-1.01-.48-.6.35-1.6.5-1.01,1.68h2.02v-1.2ZM82.87,41.56c-.5.16-.88.27-1.26.41-.12.05-.28.18-.28.28,0,.11.16.32.25.32.35,0,.77.04,1.04-.14.19-.13.17-.57.25-.87Z"/>
    <path class="cls-2" d="M123.04,62.69h-2.15v6.92c-1.17.38-1.32.28-1.32-.78,0-1.75,0-3.5,0-5.25,0-.28,0-.57,0-.9h-2.16v7.03h-5.27c0-1.03,0-2.05,0-3.07,0-1.4-.66-2.4-1.94-2.91-.49-.19-.54-.45-.54-.88,0-3.79,0-7.59,0-11.38,0-6.39,0-12.78,0-19.17v-1.1h21.04v38.59h-1.45c-1.8,0-3.61-.02-5.41.01-.61.01-.83-.15-.82-.8.04-1.8.01-3.61.01-5.41,0-.28,0-.57,0-.9ZM112.28,54.65h2.11v-3.35h-2.11v3.35ZM112.3,56.98v3.38h2.1v-3.38h-2.1ZM118.98,60.37v-3.37h-2.09v3.37h2.09ZM128.1,60.38v-3.37h-2.07v3.37h2.07ZM114.42,62.7h-2.12v3.37h2.12v-3.37ZM128.13,62.71h-2.11v3.36h2.11v-3.36ZM114.41,34.21h-2.11v3.37h2.11v-3.37ZM121.44,48.95h2.15c0-1.03.02-2-.02-2.97,0-.15-.26-.4-.41-.42-.56-.05-1.13-.02-1.72-.02v3.4ZM112.31,45.58v3.36h2.08v-3.36h-2.08ZM116.86,49.01c.62,0,1.17.04,1.71-.02.17-.02.42-.3.43-.47.05-.82.04-1.64,0-2.46,0-.17-.21-.47-.34-.48-.59-.05-1.19-.02-1.81-.02v3.45ZM128.16,37.52v-3.31h-2.2c0,.58,0,1.1,0,1.63q0,1.91,1.92,1.77s.1-.03.28-.09ZM116.87,54.64h2.1v-3.34h-2.1v3.34ZM128.16,54.67c0-1.04.02-1.98-.02-2.93,0-.17-.2-.46-.34-.48-.49-.06-1-.04-1.5,0-.12,0-.32.22-.32.34-.03,1.02-.01,2.04-.01,3.07h2.19ZM116.87,37.63c.63,0,1.15.03,1.67-.02.17-.02.45-.23.46-.36.04-1.01.02-2.03.02-3.03h-2.15v3.41ZM128.12,45.55c-.61,0-1.19-.02-1.76.02-.14.01-.38.23-.38.36-.03,1-.02,1.99-.02,3.02h2.16v-3.4ZM116.88,43.32c.6,0,1.15.04,1.69-.02.17-.02.42-.3.43-.48.05-.82.04-1.64,0-2.46,0-.17-.22-.45-.35-.46-.59-.05-1.19-.02-1.78-.02v3.44ZM123.54,56.99h-2.1v3.37h2.1v-3.37ZM128.16,43.27c0-.7.01-1.3,0-1.91-.04-1.7.35-1.48-1.6-1.49-.05,0-.12-.02-.16,0-.15.13-.42.27-.42.42-.04.97-.02,1.94-.02,2.98h2.2ZM123.54,51.28h-2.08v3.36h2.08v-3.36ZM112.29,43.26h2.1v-3.33h-2.1v3.33ZM121.44,34.18v3.46c.73-.09,1.39-.18,2.07-.26v-3.2h-2.07ZM123.46,40.79c-1.07.48-1.29.38-1.5-.43-.05-.17-.19-.32-.29-.47-.1.16-.27.31-.27.47-.03.82-.03,1.64,0,2.45,0,.17.21.47.34.48.59.05,1.18.02,1.89.02-.06-.9-.11-1.65-.17-2.53Z"/>
    <path class="cls-2" d="M16.24,31.16h20.97v38.56h-7.62v-6.97c-.19-.06-.26-.1-.34-.11q-1.89-.13-1.89,1.76c0,1.46,0,2.92,0,4.38,0,1.1,0,1.1-1.23.92v-7.05c-.67,0-1.25-.05-1.81.03-.17.03-.39.43-.4.66-.03,1.88-.04,3.77,0,5.65.01.62-.15.85-.8.82-1.05-.05-2.11-.01-3.23-.01v-3.61c.34-.04.65-.07,1.08-.11,0-1.03.01-2.06-.02-3.08,0-.11-.22-.31-.35-.32-.57-.03-1.15-.02-1.78-.02-.03.57-.06,1.07-.09,1.55-.82-.15-1.62-.3-2.49-.46V31.16ZM27.95,56.99v3.37h2.1v-3.37h-2.1ZM34.65,57.01h-2.1v3.34h2.1v-3.34ZM34.62,66.09v-3.36h-2.06v3.36h2.06ZM27.95,51.26v3.4h2.07v-3.4h-2.07ZM20.92,34.23h-2.1v3.35h2.1v-3.35ZM20.97,54.67c0-.59,0-1.13,0-1.68q0-1.94-1.96-1.72s-.09.04-.17.08v3.32h2.13ZM18.77,45.55c0,.73,0,1.31,0,1.89,0,1.71,0,1.73,1.68,1.56.19-.02.49-.31.5-.49.05-.82.05-1.64,0-2.46,0-.17-.26-.46-.43-.48-.54-.06-1.1-.02-1.75-.02ZM25.47,45.55c-.61,0-1.16-.02-1.7.02-.15.01-.41.21-.41.33-.03,1.02-.02,2.03-.02,3.06h2.14v-3.4ZM34.69,54.67c0-1.04.02-2.01-.02-2.98,0-.16-.24-.42-.39-.43-.57-.05-1.14-.02-1.74-.02v3.43h2.15ZM25.49,51.28h-2.09v3.36h2.09v-3.36ZM32.55,34.19v3.38h2.08v-3.38h-2.08ZM30.11,37.52c0-.53,0-1.07,0-1.62,0-1.98-.07-2.03-2.2-1.63,0,.52,0,1.07,0,1.62q0,1.89,1.89,1.73c.07,0,.15-.05.31-.11ZM27.94,48.94h2.11v-3.34h-2.11v3.34ZM23.32,39.91c0,.61,0,1.13,0,1.66,0,1.97.05,2.01,2.04,1.7.02,0,.05-.03.11-.06v-3.3h-2.14ZM23.32,34.2c0,.58,0,1.1,0,1.62q0,1.96,1.98,1.79s.09-.05.17-.1v-3.3h-2.15ZM18.84,56.98v3.4h2.06v-3.4h-2.06ZM25.45,60.37v-3.39h-2.06v3.39h2.06ZM20.92,39.92h-2.08v3.33h2.08v-3.33ZM32.55,45.63v3.31h2.14v-1.64q0-1.9-1.9-1.74c-.08,0-.15.04-.24.07ZM34.64,43.28v-3.36h-2.09v3.36h2.09ZM27.9,43.27h2.2c0-.85,0-1.64,0-2.43,0-1.01-.04-1.02-1.01-.98-.45.02-.58.2-.61.62-.02.23-.23.44-.36.67-.08.15-.2.3-.21.45-.03.53-.01,1.06-.01,1.67Z"/>
    <path class="cls-2" d="M88.29,31.92h2.04v-3.45h-1.98v-2.21h2.02c0-1.11.02-2.11-.02-3.11,0-.14-.33-.35-.53-.38-.46-.06-.94-.02-1.47-.02v-3.52c.3-.01.59-.04.87-.04,2.47,0,4.93.02,7.4-.02.7-.01,1.03.15.95.91-.06.63-.02,1.27-.02,1.91,0,12.79,0,25.57,0,38.36,0,.67-.08,1.18-.69,1.62-.71.52-1.02,1.33-1.02,2.24,0,1.83,0,3.65,0,5.59-.8,0-1.58,0-2.37,0-1.51,0-3.02,0-4.54,0-.39,0-.67-.05-.66-.54.02-2.86.01-5.73.02-8.59,0-.05.04-.09.1-.22h1.91v-3.48h-1.97v-2.22h1.97v-3.47h-1.97v-2.24h2.04c0-1.09.02-2.06-.02-3.04,0-.16-.3-.4-.49-.42-.49-.06-.99-.02-1.53-.02v-2.23h2v-3.42h-1.98v-2.25c.48,0,1,.04,1.51-.02.18-.02.48-.26.48-.42.04-.97.02-1.95.02-3.04-.55,0-1.01-.02-1.48,0-.44.02-.63-.14-.61-.6.03-.5,0-1,0-1.65ZM94.92,54.66c0-1.04.01-2.04-.02-3.04,0-.13-.24-.35-.38-.36-.57-.04-1.14-.02-1.7-.02v3.42h2.1ZM92.81,60.41c.61,0,1.14.03,1.66-.02.16-.02.43-.25.44-.39.04-.99.02-1.99.02-3.02h-2.12v3.43ZM92.76,48.91c2.15.36,2.18.34,2.18-1.66,0-.08,0-.16,0-.24,0-1.6,0-1.59-1.61-1.48-.39.03-.58.14-.57.56.02.92,0,1.84,0,2.82ZM92.82,62.75v3.33h2.11c0-.57,0-1.09,0-1.61q0-1.99-1.99-1.78s-.04.02-.12.06ZM92.75,26.13q2.18.31,2.18-1.7c0-.05,0-.11,0-.16,0-1.66,0-1.67-1.64-1.5-.19.02-.5.31-.51.48-.05.94-.02,1.89-.02,2.88ZM92.75,34.23c0,.82,0,1.6,0,2.39q0,1.02,1.04,1.02t1.13-1.16c0-.16,0-.32,0-.47q0-2-2.18-1.77ZM94.93,30.17q0-1.82-1.6-1.71s-.06-.01-.08,0c-.17.17-.47.34-.48.53-.05.79-.02,1.58-.03,2.37,0,.38.12.55.54.58,1.64.1,1.64.11,1.64-1.53,0-.08,0-.16,0-.24ZM94.93,43.31c0-.72,0-1.32,0-1.92,0-1.67,0-1.68-1.64-1.5-.19.02-.49.3-.51.48-.06.82-.05,1.64,0,2.46,0,.17.23.45.37.46.57.05,1.14.02,1.79.02Z"/>
    <path class="cls-2" d="M62.73,37.62v2.2c-.65.03-1.28.06-1.97.09v3.39h1.95v2.25c-.48,0-.98-.05-1.46.02-.2.03-.53.28-.54.45-.05.95-.03,1.9-.03,2.94.7.03,1.34.06,2.02.1v2.19c-.53,0-1.03-.04-1.52.02-.18.02-.47.27-.48.43-.04.97-.02,1.95-.02,3.01h2.01v2.2h-1.94v3.52c.45,0,.91.03,1.38,0,.5-.03.64.17.63.65-.02,2.7-.01,5.41,0,8.11,0,.35-.04.62-.5.62-2.84-.02-5.67-.02-8.51-.04-.05,0-.09-.05-.19-.1v-2.11c.93-.48,1.72-1.01,2.59-1.3.62-.21,1.35-.12,2.09-.17v-3.36c-.4-.04-.78-.07-1.22-.11v-2.12c.4-.03.78-.06,1.27-.1,0-1.04,0-2.07,0-3.09,0-.07-.03-.16-.08-.22-.31-.35-1.98-.06-2.16.29-.72-.21-1.42-.4-2.11-.63-.17-.06-.36-.27-.4-.44-.07-.3-.02-.63-.02-.95,0-11.69,0-23.39,0-35.08,0-.31,0-.62,0-.99h9.18v3.49h-1.96v3.43c.64.03,1.26.06,1.95.09v2.14c-.62.03-1.26.06-1.95.1v3.38c.64.03,1.28.06,1.97.1v2.16h-1.96v3.48h1.98ZM56.17,28.5v3.38h2.09v-3.38h-2.09ZM58.25,26.17v-3.42c-.6,0-1.15-.03-1.7.02-.15.01-.4.22-.4.34-.03,1.02-.02,2.04-.02,3.06h2.12ZM58.25,37.58v-3.39h-2.07v3.39h2.07ZM58.31,54.68c0-1.06.01-2.06-.02-3.06,0-.13-.24-.35-.39-.36-.57-.04-1.14-.02-1.71-.02v3.44h2.12ZM58.26,45.54c-.64,0-1.19-.03-1.74.02-.14.01-.38.23-.38.36-.03,1-.02,2-.02,3.03h2.14v-3.41ZM56.18,39.91v3.35h2.06v-3.35h-2.06Z"/>
    <path class="cls-2" d="M48.61,56.55c-.18.76-.39,1.51-.51,2.27-.11.7-.15,1.41-.17,2.12-.02,1.16-.01,2.33.02,3.5.02.58-.19.6-.67.43-.31-.11-.72-.18-1.02-.07-.82.29-1.29.06-1.31-.83-.03-1.48-.01-2.97-.02-4.45,0-1.32-.01-2.65,0-3.97,0-.91.29-1.18,1.19-1.2.05,0,.11,0,.16,0q2.19-.01,2.33,2.2Z"/>
    <path class="cls-2" d="M54.76,61.97c0,.64.02,1.27,0,1.91-.03.94-.82,1.48-1.64,1.03-.52-.29-.88-.25-1.38,0-.86.42-1.6-.09-1.61-1.05-.01-1.25-.02-2.49,0-3.74,0-.36.09-.73.2-1.08.33-1.08,1.14-1.24,1.96-.44.21.2.59.3.89.31,1.43.04,1.58.17,1.58,1.63,0,.48,0,.95,0,1.43h0Z"/>
    <path class="cls-2" d="M104.89,69.73c-1.14.08-1.42-.17-1.43-1.21,0-.61,0-1.22,0-1.83,0-.65.34-1,.97-1,1.51-.01,3.02,0,4.53,0,.6,0,.95.32.97.92.02.74.02,1.48,0,2.23-.02.65-.41.95-1.03.95-.53,0-1.06,0-1.63,0-.22-.68-.39-1.47-1.33-1.38-.74.07-1,.61-1.06,1.32Z"/>
    <path class="cls-2" d="M101.28,68.36c-.98.02-1.46.45-1.49,1.31-1.27.33-1.74,0-1.75-1.23,0-1.3,0-2.6,0-3.9,0-.92.28-1.2,1.18-1.2,1.11-.01,2.23-.01,3.34,0,.25,0,.5.05.83.17-2.21.96-2.27,2.84-2.12,4.87Z"/>
    <path class="cls-2" d="M142.21,63.38c0,.42.09.87-.03,1.26-.1.35-.38.74-.68.91-.39.22-.74.1-.96-.44-.27-.66-1.12-.66-1.43-.02-.19.39-.38.72-.78.47-.31-.19-.68-.56-.71-.89-.1-.86-.05-1.74-.02-2.62.02-.55.35-.89.91-.91.93-.02,1.85-.02,2.78,0,.6.01.93.34.94.95,0,.42,0,.85,0,1.27Z"/>
    <path class="cls-2" d="M16.24,69.71c-.03-.14-.07-.29-.11-.44-.14-.56-.53-.96-1.07-.84-.39.09-.88.46-1,.81-.17.52-.46.66-.85.51-.27-.1-.62-.43-.65-.68-.09-.76-.03-1.53-.03-2.3,0-.5.28-.72.75-.72,1.19,0,2.38,0,3.57,0,.57,0,.81.3.8.85,0,.56,0,1.11,0,1.67,0,1.19-.15,1.31-1.39,1.14Z"/>
    <path class="cls-2" d="M47.58,69.79c0-.81,0-1.51,0-2.22,0-.11.1-.32.16-.32.73-.02,1.35-.76,2.18-.27.37.22.86.22,1.39.34,0,.66.03,1.34-.02,2.02-.01.16-.26.43-.4.43-1.08.04-2.16.02-3.33.02Z"/>
    <path class="cls-1" d="M69.69,60.38h-2.07v-3.37h2.07v3.37Z"/>
    <path class="cls-1" d="M72.18,60.36v-3.35h2.11v3.35h-2.11Z"/>
    <path class="cls-1" d="M67.61,26.17v-3.37h2.1v3.37h-2.1Z"/>
    <path class="cls-1" d="M74.3,22.82v3.33h-2.09v-3.33h2.09Z"/>
    <path class="cls-1" d="M76.79,22.85c.11-.04.16-.07.2-.08q1.93-.15,1.93,1.76c0,.52,0,1.04,0,1.63h-2.14v-3.31Z"/>
    <path class="cls-1" d="M67.61,28.5h2.1v3.38h-2.1v-3.38Z"/>
    <path class="cls-1" d="M74.28,31.89h-2.08v-3.38h2.08v3.38Z"/>
    <path class="cls-1" d="M78.87,31.9h-2.08v-3.38h2.08v3.38Z"/>
    <path class="cls-1" d="M78.87,56.94v3.43h-2.14c0-1.05-.01-2.09.02-3.13,0-.1.29-.27.46-.28.52-.04,1.05-.01,1.66-.01Z"/>
    <path class="cls-1" d="M67.61,54.66v-3.38h2.1v3.38h-2.1Z"/>
    <path class="cls-1" d="M74.34,54.66h-2.2c0-1.03-.01-2.03.02-3.02,0-.14.23-.28.37-.39.05-.04.15-.01.23-.01,1.92.02,1.54-.22,1.58,1.5.01.63,0,1.25,0,1.92Z"/>
    <path class="cls-1" d="M78.87,54.67h-2.1v-3.38h2.1v3.38Z"/>
    <path class="cls-1" d="M67.56,62.68h2.15v3.44c-.59,0-1.16.03-1.73-.02-.15-.01-.39-.27-.4-.43-.04-.97-.02-1.94-.02-2.99Z"/>
    <path class="cls-1" d="M67.59,48.94v-3.32h2.13v3.32h-2.13Z"/>
    <path class="cls-1" d="M74.28,48.96h-2.1v-3.35h2.1v3.35Z"/>
    <path class="cls-1" d="M76.78,45.6h2.1v3.35h-2.1v-3.35Z"/>
    <path class="cls-1" d="M67.59,20.46v-3.32h2.13v3.32h-2.13Z"/>
    <path class="cls-1" d="M78.9,17.12v3.32h-2.11v-3.32h2.11Z"/>
    <path class="cls-1" d="M74.29,20.46h-2.1v-3.34h2.1v3.34Z"/>
    <path class="cls-1" d="M81.34,66.07v-3.32c.11-.04.18-.08.25-.09q1.9-.11,1.9,1.8c0,.52,0,1.04,0,1.61h-2.15Z"/>
    <path class="cls-1" d="M83.48,54.68h-2.12v-3.36c.07-.03.12-.06.17-.06q1.95-.15,1.95,1.78c0,.52,0,1.05,0,1.65Z"/>
    <path class="cls-1" d="M81.35,60.42v-3.43h2.12c0,1.04.02,2.06-.02,3.08,0,.12-.31.31-.49.33-.5.05-1,.02-1.61.02Z"/>
    <path class="cls-1" d="M83.48,26.17h-2.18c0-1-.01-2.02.02-3.04,0-.13.25-.26.4-.37.05-.04.15-.01.23-.01,1.83.02,1.5-.2,1.53,1.48.01.63,0,1.25,0,1.93Z"/>
    <path class="cls-1" d="M81.3,49.01c0-1.08-.02-2.05.02-3.02,0-.15.26-.4.42-.42.54-.05,1.1-.02,1.74-.02,0,1.08.02,2.05-.02,3.02,0,.15-.26.4-.42.41-.54.05-1.1.02-1.74.02Z"/>
    <path class="cls-1" d="M81.3,31.93c0-1.08-.02-2.05.02-3.02,0-.16.29-.42.47-.44.52-.06,1.04-.02,1.68-.02,0,1.07.02,2.07-.02,3.06,0,.14-.27.38-.43.4-.52.05-1.05.02-1.73.02Z"/>
    <path class="cls-1" d="M81.3,20.41c0-.96-.03-1.88.02-2.81.01-.18.3-.48.49-.51,1.65-.22,1.68-.18,1.68,1.46,0,.08,0,.16,0,.24,0,1.95-.04,1.98-2.19,1.61Z"/>
    <path class="cls-1" d="M81.35,34.21c.21-.02.36-.04.51-.05,1.7-.05,1.87.14,1.61,1.85-.02.14-.11.37-.18.38-.52.05-.39.44-.47.76-.04.18-.23.32-.35.47-.12-.16-.35-.33-.34-.49.03-.56-.21-.77-.78-.69v-2.24Z"/>
    <path class="cls-1" d="M78.79,37.17c-.65-.78-1.17-1-1.96-.38-.05-.83-.09-1.66-.14-2.57h2.1v2.94Z"/>
    <path class="cls-1" d="M74.28,36.29c-.75.17-1.4.32-2.09.48v-2.54h2.09v2.06Z"/>
    <path class="cls-1" d="M69.72,34.23v2.39c-.71-.09-1.4-.17-2.12-.26v-2.14h2.12Z"/>
    <path class="cls-1" d="M76.73,43.24c.05-1.03.09-2.02.16-3.01,0-.12.16-.22.24-.34.1.13.27.25.28.38.03.5.01,1,.01,1.58h1.19v-1.88c.08,0,.16-.02.24-.02.03.23.07.45.08.68.01.29,0,.58,0,.87q0,2.02-2.2,1.73Z"/>
    <path class="cls-1" d="M72.2,41.9c.59-.06,1.11-.1,1.62-.15.07-.09.14-.17.21-.26.14.56.27,1.12.43,1.78h-2.27v-1.36Z"/>
    <path class="cls-1" d="M69.71,42.07v1.2h-2.02c-.59-1.18.41-1.33,1.01-1.68.32.15.64.3,1.01.48Z"/>
    <path class="cls-1" d="M82.87,41.56c-.08.3-.06.74-.25.87-.26.18-.68.14-1.04.14-.09,0-.24-.2-.25-.32,0-.09.16-.23.28-.28.37-.14.75-.25,1.26-.41Z"/>
    <path class="cls-1" d="M112.28,54.65v-3.35h2.11v3.35h-2.11Z"/>
    <path class="cls-1" d="M112.3,56.98h2.1v3.38h-2.1v-3.38Z"/>
    <path class="cls-1" d="M118.98,60.37h-2.09v-3.37h2.09v3.37Z"/>
    <path class="cls-1" d="M128.1,60.38h-2.07v-3.37h2.07v3.37Z"/>
    <path class="cls-1" d="M114.42,62.7v3.37h-2.12v-3.37h2.12Z"/>
    <path class="cls-1" d="M128.13,62.71v3.36h-2.11v-3.36h2.11Z"/>
    <path class="cls-1" d="M114.41,34.21v3.37h-2.11v-3.37h2.11Z"/>
    <path class="cls-1" d="M121.44,48.95v-3.4c.58,0,1.15-.03,1.72.02.15.01.41.27.41.42.04.97.02,1.94.02,2.97h-2.15Z"/>
    <path class="cls-1" d="M112.31,45.58h2.08v3.36h-2.08v-3.36Z"/>
    <path class="cls-1" d="M116.86,49.01v-3.45c.62,0,1.22-.03,1.81.02.13.01.33.31.34.48.04.82.04,1.64,0,2.46,0,.17-.27.45-.43.47-.54.06-1.09.02-1.71.02Z"/>
    <path class="cls-1" d="M128.16,37.52c-.18.06-.23.09-.28.09q-1.92.13-1.92-1.77c0-.52,0-1.04,0-1.63h2.2v3.31Z"/>
    <path class="cls-1" d="M116.87,54.64v-3.34h2.1v3.34h-2.1Z"/>
    <path class="cls-1" d="M128.16,54.67h-2.19c0-1.04-.01-2.06.01-3.07,0-.12.2-.33.32-.34.5-.04,1.01-.05,1.5,0,.14.02.33.31.34.48.03.95.02,1.89.02,2.93Z"/>
    <path class="cls-1" d="M116.87,37.63v-3.41h2.15c0,1,.02,2.01-.02,3.03,0,.13-.29.34-.46.36-.52.05-1.05.02-1.67.02Z"/>
    <path class="cls-1" d="M128.12,45.55v3.4h-2.16c0-1.02-.01-2.02.02-3.02,0-.13.24-.35.38-.36.57-.04,1.15-.02,1.76-.02Z"/>
    <path class="cls-1" d="M116.88,43.32v-3.44c.6,0,1.19-.03,1.78.02.14.01.35.3.35.46.03.82.04,1.64,0,2.46-.01.17-.27.46-.43.48-.54.06-1.1.02-1.69.02Z"/>
    <path class="cls-1" d="M123.54,56.99v3.37h-2.1v-3.37h2.1Z"/>
    <path class="cls-1" d="M128.16,43.27h-2.2c0-1.03-.02-2,.02-2.98,0-.15.27-.29.42-.42.03-.03.1,0,.16,0,1.95.01,1.56-.2,1.6,1.49.01.61,0,1.21,0,1.91Z"/>
    <path class="cls-1" d="M123.54,51.28v3.36h-2.08v-3.36h2.08Z"/>
    <path class="cls-1" d="M112.29,43.26v-3.33h2.1v3.33h-2.1Z"/>
    <path class="cls-1" d="M121.44,34.18h2.07v3.2c-.67.09-1.34.17-2.07.26v-3.46Z"/>
    <path class="cls-1" d="M123.46,40.79c.06.88.11,1.63.17,2.53-.71,0-1.3.03-1.89-.02-.13-.01-.34-.31-.34-.48-.04-.82-.03-1.63,0-2.45,0-.16.18-.32.27-.47.1.16.24.3.29.47.21.81.43.91,1.5.43Z"/>
    <path class="cls-1" d="M27.95,56.99h2.1v3.37h-2.1v-3.37Z"/>
    <path class="cls-1" d="M34.65,57.01v3.34h-2.1v-3.34h2.1Z"/>
    <path class="cls-1" d="M34.62,66.09h-2.06v-3.36h2.06v3.36Z"/>
    <path class="cls-1" d="M27.95,51.26h2.07v3.4h-2.07v-3.4Z"/>
    <path class="cls-1" d="M20.92,34.23v3.35h-2.1v-3.35h2.1Z"/>
    <path class="cls-1" d="M20.97,54.67h-2.13v-3.32c.07-.04.12-.07.17-.08q1.96-.22,1.96,1.72c0,.55,0,1.09,0,1.68Z"/>
    <path class="cls-1" d="M18.77,45.55c.65,0,1.21-.04,1.75.02.17.02.42.3.43.48.05.82.05,1.64,0,2.46-.01.18-.31.47-.5.49-1.68.17-1.68.15-1.68-1.56,0-.58,0-1.16,0-1.89Z"/>
    <path class="cls-1" d="M25.47,45.55v3.4h-2.14c0-1.03-.01-2.04.02-3.06,0-.12.26-.32.41-.33.55-.04,1.1-.02,1.7-.02Z"/>
    <path class="cls-1" d="M34.69,54.67h-2.15v-3.43c.6,0,1.17-.03,1.74.02.15.01.38.28.39.43.04.97.02,1.94.02,2.98Z"/>
    <path class="cls-1" d="M25.49,51.28v3.36h-2.09v-3.36h2.09Z"/>
    <path class="cls-1" d="M32.55,34.19h2.08v3.38h-2.08v-3.38Z"/>
    <path class="cls-1" d="M30.11,37.52c-.17.06-.24.1-.31.11q-1.89.16-1.89-1.73c0-.55,0-1.09,0-1.62,2.13-.4,2.2-.35,2.2,1.63,0,.55,0,1.09,0,1.62Z"/>
    <path class="cls-1" d="M27.94,48.94v-3.34h2.11v3.34h-2.11Z"/>
    <path class="cls-1" d="M23.32,39.91h2.14v3.3c-.06.03-.08.06-.11.06-1.99.31-2.04.27-2.04-1.7,0-.52,0-1.05,0-1.66Z"/>
    <path class="cls-1" d="M23.32,34.2h2.15v3.3c-.08.05-.12.1-.17.1q-1.98.17-1.98-1.79c0-.52,0-1.04,0-1.62Z"/>
    <path class="cls-1" d="M18.84,56.98h2.06v3.4h-2.06v-3.4Z"/>
    <path class="cls-1" d="M25.45,60.37h-2.06v-3.39h2.06v3.39Z"/>
    <path class="cls-1" d="M20.92,39.92v3.33h-2.08v-3.33h2.08Z"/>
    <path class="cls-1" d="M32.55,45.63c.09-.03.17-.07.24-.07q1.9-.15,1.9,1.74v1.64h-2.14v-3.31Z"/>
    <path class="cls-1" d="M34.64,43.28h-2.09v-3.36h2.09v3.36Z"/>
    <path class="cls-1" d="M27.9,43.27c0-.61-.02-1.14.01-1.67,0-.15.13-.3.21-.45.12-.22.34-.44.36-.67.04-.42.16-.61.61-.62.97-.04,1.01-.03,1.01.98,0,.79,0,1.58,0,2.43h-2.2Z"/>
    <path class="cls-1" d="M94.92,54.66h-2.1v-3.42c.56,0,1.13-.02,1.7.02.14.01.38.23.38.36.03,1,.02,2,.02,3.04Z"/>
    <path class="cls-1" d="M92.81,60.41v-3.43h2.12c0,1.03.02,2.03-.02,3.02,0,.14-.27.37-.44.39-.52.05-1.05.02-1.66.02Z"/>
    <path class="cls-1" d="M92.76,48.91c0-.98.01-1.9,0-2.82,0-.41.18-.53.57-.56,1.61-.11,1.61-.12,1.61,1.48,0,.08,0,.16,0,.24,0,1.99-.03,2.02-2.18,1.66Z"/>
    <path class="cls-1" d="M92.82,62.75c.08-.04.1-.06.12-.06q1.99-.21,1.99,1.78c0,.52,0,1.05,0,1.61h-2.11v-3.33Z"/>
    <path class="cls-1" d="M92.75,26.13c0-.99-.03-1.93.02-2.88,0-.18.32-.46.51-.48,1.64-.17,1.64-.16,1.64,1.5,0,.05,0,.11,0,.16q0,2.01-2.18,1.7Z"/>
    <path class="cls-1" d="M92.75,34.23q2.18-.23,2.18,1.77c0,.16,0,.32,0,.47q0,1.16-1.13,1.16t-1.04-1.02c0-.78,0-1.57,0-2.39Z"/>
    <path class="cls-1" d="M94.93,30.17c0,.08,0,.16,0,.24,0,1.65,0,1.63-1.64,1.53-.42-.03-.55-.2-.54-.58.01-.79-.03-1.59.03-2.37.01-.19.31-.36.48-.53.01-.01.05,0,.08,0q1.6-.1,1.6,1.71Z"/>
    <path class="cls-1" d="M94.93,43.31c-.65,0-1.22.03-1.79-.02-.14-.01-.36-.3-.37-.46-.04-.82-.05-1.64,0-2.46.01-.18.31-.46.51-.48,1.64-.18,1.64-.17,1.64,1.5,0,.6,0,1.21,0,1.92Z"/>
    <path class="cls-1" d="M56.17,28.5h2.09v3.38h-2.09v-3.38Z"/>
    <path class="cls-1" d="M58.25,26.17h-2.12c0-1.02-.01-2.04.02-3.06,0-.12.26-.33.4-.34.55-.04,1.1-.02,1.7-.02v3.42Z"/>
    <path class="cls-1" d="M58.25,37.58h-2.07v-3.39h2.07v3.39Z"/>
    <path class="cls-1" d="M58.31,54.68h-2.12v-3.44c.57,0,1.15-.02,1.71.02.14.01.38.23.39.36.03,1,.02,2,.02,3.06Z"/>
    <path class="cls-1" d="M58.26,45.54v3.41h-2.14c0-1.03-.01-2.03.02-3.03,0-.13.24-.35.38-.36.55-.04,1.1-.02,1.74-.02Z"/>
    <path class="cls-1" d="M56.18,39.91h2.06v3.35h-2.06v-3.35Z"/>
  </g>
  <g>
    <path class="cls-1" d="M28.58,8.84c0,.31,0,.55,0,.78,0,6.12,0,12.25,0,18.37,0,.81-.29,1.44-1.01,1.82-.64.34-1.29.3-1.9-.11-.58-.4-.81-.97-.81-1.66,0-2.43,0-4.85,0-7.28,0-.23,0-.47,0-.7-.59.91-1.34,1.41-2.38,1.13-1.21-.32-1.46-1.3-1.36-2.63-.62,1.13-1.36,1.7-2.48,1.35-1.14-.36-1.37-1.29-1.26-2.56-.22.32-.31.47-.42.61-.46.65-1.23.93-2,.73-.76-.2-1.36-.82-1.35-1.63.08-4.27-.35-8.55.29-12.8.22-1.42.57-2.82.86-4.24,2.65,0,5.19,0,7.73,0,1.25,0,2.49.01,3.74,0,.41,0,.7.09.97.43,1.94,2.36,3.91,4.68,5.83,7.05.3.37.49.92.5,1.39.05,2.02.03,4.05.02,6.08,0,1.14-.8,1.92-1.87,1.91-1.04-.01-1.79-.78-1.81-1.91-.02-1.2-.08-2.41.02-3.61.09-1.11-.29-1.89-1.33-2.51Z"/>
    <path class="cls-1" d="M39.28,19.97c.01-2.06,1.69-3.69,3.78-3.67,2.05.02,3.7,1.72,3.67,3.79-.03,2.03-1.69,3.67-3.72,3.67-2.11,0-3.74-1.66-3.73-3.79Z"/>
    <path class="cls-1" d="M6.7,23.16c0-1.71,1.39-3.1,3.09-3.1,1.71,0,3.11,1.38,3.12,3.08.01,1.73-1.4,3.15-3.13,3.14-1.7-.01-3.09-1.41-3.09-3.11Z"/>
    <path class="cls-1" d="M41.15,32.59c1.74.01,3.08,1.37,3.08,3.1,0,1.72-1.38,3.1-3.08,3.11-1.7,0-3.12-1.39-3.11-3.08,0-1.78,1.36-3.14,3.12-3.13Z"/>
    <path class="cls-1" d="M9.15,40.05c-1.38-.01-2.47-1.16-2.45-2.55.03-1.35,1.15-2.42,2.52-2.4,1.38.02,2.44,1.09,2.44,2.47,0,1.39-1.11,2.49-2.51,2.48Z"/>
    <path class="cls-1" d="M23.58,25.38c0,1.01-.05,2.03.01,3.04.08,1.27.77,2.18,1.93,2.66,1.13.47,2.23.3,3.2-.48.81-.66,1.16-1.55,1.16-2.58,0-.88,0-1.75,0-2.71,1.56,1.42,1.57,4.11.11,5.76-1.58,1.79-4.32,1.97-6.12.41-1.83-1.59-2.03-4.27-.29-6.08Z"/>
    <path class="cls-1" d="M12.82,36.42c-.19-.37-.34-.68-.54-1.08,3.1-1.55,6.19-3.1,9.34-4.68.21.31.41.62.68,1.01-3.16,1.58-6.31,3.16-9.48,4.74Z"/>
    <path class="cls-1" d="M27.38,38.2c0-1.01.8-1.84,1.79-1.85,1.04-.02,1.89.79,1.91,1.81.02,1.02-.82,1.88-1.84,1.89-1.04,0-1.86-.81-1.86-1.85Z"/>
    <path class="cls-1" d="M14.86,28.84c1.04.02,1.84.86,1.81,1.9-.03.99-.88,1.81-1.86,1.8-1.03,0-1.85-.85-1.84-1.88.01-1.04.84-1.83,1.89-1.82Z"/>
    <path class="cls-1" d="M21.08,27.55c-2.48-.83-4.87-1.63-7.31-2.44.13-.38.25-.71.4-1.13,2.38.79,4.75,1.58,7.17,2.38-.08.39-.16.74-.26,1.19Z"/>
    <path class="cls-1" d="M38.3,21.88c.2.36.37.67.59,1.05-2.23,1.2-4.45,2.4-6.71,3.62-.17-.37-.32-.7-.49-1.1,2.2-1.18,4.38-2.36,6.62-3.57Z"/>
    <path class="cls-1" d="M37.43,33.25c-.18.38-.34.71-.52,1.09-1.91-.91-3.78-1.81-5.69-2.72.23-.37.42-.69.64-1.03,1.86.89,3.7,1.77,5.57,2.67Z"/>
    <path class="cls-1" d="M18.03,30.77c-.07-.44-.13-.78-.2-1.18,1.1-.17,2.17-.34,3.29-.52.1.39.19.74.3,1.16-1.15.18-2.23.35-3.39.53Z"/>
    <path class="cls-1" d="M29.01,35.01c-.44.11-.78.2-1.17.3-.13-.51-.26-.99-.4-1.52.39-.09.73-.17,1.14-.27.14.49.28.97.43,1.49Z"/>
  </g>
  <path class="cls-1" d="M76.13,37.69c4.11,0,7.45,3.33,7.45,7.45s-3.33,7.45-7.45,7.45-7.45-3.33-7.45-7.45,3.33-7.45,7.45-7.45ZM104.31,50.58c-2.69-1.4-6.29.42-8.25,4.16h0c-.89,1.69-1.27,3.51-1.11,5.16.13,1.29.62,2.4,1.38,3.18l-1.91,3.2h-8.53v-4.84c0-2.96-2.11-5.49-5.02-6.02l-14.93-2.71c-4-.73-8,1.24-9.85,4.84l-4.89,9.47c-1.2,2.27.44,5,3,5h12.67c1.62,0,2.93-1.31,2.93-2.93s-1.31-2.93-2.93-2.93h-5.56c-.49,0-.87-.4-.87-.87s.4-.87.87-.87h5.56c2.58,0,4.67,2.09,4.67,4.67,0,1.11-.4,2.13-1.04,2.93h7.11l2.18-5.6v3.11c0,1.38,1.11,2.49,2.49,2.49h12.22c1.58,0,2.87-1.29,2.87-2.87,0-.62-.2-1.22-.56-1.69l1.91-3.18c.2.02.42.04.64.04,2.29,0,4.8-1.73,6.29-4.62,1.93-3.71,1.36-7.71-1.33-9.11ZM103.31,58.49c-1.33,2.53-3.53,3.64-4.69,3.04-.76-.4-.96-1.36-1.02-1.91-.11-1.11.18-2.47.82-3.69h0c1.33-2.53,3.53-3.64,4.69-3.04,1.16.62,1.51,3.07.2,5.6Z"/>
  <g>
    <path class="cls-1" d="M105.59,38.8c-.84-.38-1.08-1.04-1.08-1.93.02-5.41,0-10.81,0-16.22,0-.42.07-.76.45-1.02.45.76,1.11,1.18,2.02,1.1.91-.08,1.51-.58,1.86-1.45.5.39,1.06.5,1.65.4.58-.1,1.07-.39,1.44-.95.2.62.38,1.2.56,1.77.34,1.1.67,2.2,1.02,3.29.33,1.04,1.34,1.63,2.42,1.42.99-.19,1.79-1.16,1.66-2.14-.07-.6-.3-1.19-.49-1.78-.85-2.76-1.71-5.52-2.58-8.32.62-.14,1.16-.51,1.86-.49,1.86.05,3.72.02,5.58.02.13,0,.26,0,.43,0-.27.93-.53,1.82-.78,2.71-.34,1.2-.71,2.39-.99,3.6-.25,1.08.72,2.3,1.83,2.4,1.12.1,1.9-.36,2.36-1.4.7-1.57,1.4-3.14,2.14-4.79.01.16.02.24.02.33,0,7.22,0,14.45.02,21.67,0,.88-.29,1.46-1.1,1.78h-20.31ZM112.01,27.41c-.13.06-.23.08-.3.13-1.56.97-3.13,1.95-4.69,2.93-.24.15-.33.33-.15.62,1,1.56,1.98,3.13,2.96,4.7.15.24.33.28.57.13.41-.26.83-.51,1.24-.77,1.15-.72,2.3-1.44,3.45-2.16.22-.14.38-.29.2-.58-.99-1.58-1.98-3.15-2.98-4.73-.07-.11-.2-.18-.3-.27ZM116.34,33.82c.11.1.21.26.34.31,1.72.68,3.45,1.34,5.17,2.01.29.11.48.03.59-.26.65-1.7,1.31-3.39,1.96-5.09.16-.4.1-.51-.31-.67-1.67-.64-3.34-1.29-5.01-1.93-.41-.16-.52-.11-.67.3-.59,1.53-1.19,3.06-1.78,4.59-.09.22-.17.44-.29.74ZM118.83,24.75c-.08-.38-.14-.76-.24-1.14-.06-.23-.23-.39-.48-.3-.25.1-.21.3-.16.54.09.41.21.86.14,1.26-.22,1.33-1.38,2.32-2.92,2.05-1.22-.21-2.14-1.39-2-2.72.03-.23-.06-.38-.27-.42-.25-.04-.38.13-.4.35-.16,1.83,1.08,3.39,3,3.5,1.81.1,3.3-1.38,3.32-3.13Z"/>
    <path class="cls-1" d="M108.32-4.62c.67,2.15,1.33,4.3,2,6.45.19.6.1.78-.51.97-4.02,1.24-8.04,2.48-12.06,3.72-.52.16-.72.05-.88-.47-.65-2.07-1.29-4.15-1.94-6.22-.02-.05-.05-.09-.08-.14v-.14c3.47-1.08,6.94-2.15,10.42-3.23.97-.3,1.94-.62,2.91-.93h.14ZM107.53-.19c0-.91-.71-1.64-1.62-1.63-1.01,0-1.66.74-1.68,1.66-.02.86.79,1.61,1.68,1.6.94,0,1.62-.69,1.62-1.62Z"/>
    <path class="cls-1" d="M137.34,2.06c-.33.61-.68,1.22-.99,1.84-.64,1.23-1.26,2.47-1.89,3.71-.22.43-.34.47-.78.25-2.57-1.31-5.14-2.61-7.71-3.92-.41-.21-.45-.29-.25-.69.95-1.87,1.91-3.75,2.86-5.62.01-.02.03-.03.08-.07.94.48,1.89.95,2.84,1.44,1.85.94,3.7,1.88,5.55,2.82.09.05.2.08.29.11,0,.05,0,.1,0,.14ZM129.34.61c-.8-.07-1.56.63-1.57,1.5-.01.85.67,1.53,1.54,1.53.85,0,1.54-.66,1.55-1.49.01-.86-.66-1.54-1.53-1.55Z"/>
    <path class="cls-1" d="M114.3,12.31c-.11-.42-.22-.83-.34-1.24-.08-.27-.21-.53-.29-.81-.08-.26-.21-.41-.48-.32-.3.1-.25.33-.18.56.68,2.18,1.36,4.37,2.04,6.55.42,1.33.84,2.67,1.25,4,.17.55.34,1.11.51,1.66.25.81-.13,1.56-.91,1.79-.78.23-1.5-.16-1.75-.98-.51-1.62-1.01-3.23-1.51-4.85-.63-2.01-1.25-4.03-1.88-6.04-.02-.08-.03-.19-.08-.23-.12-.09-.29-.22-.4-.19-.11.03-.25.25-.23.36.04.31.15.62.25.92.38,1.23.77,2.47,1.15,3.7.19.62,0,1.2-.48,1.56-.47.34-1.18.37-1.64,0-.22-.17-.4-.45-.49-.71-.48-1.44-.92-2.89-1.37-4.34-.02-.08-.04-.16-.08-.24-.09-.19-.23-.31-.45-.23-.22.08-.27.24-.2.45.38,1.22.76,2.44,1.13,3.67.12.4.27.79.32,1.2.09.78-.36,1.3-1.19,1.48-.59.13-1.26-.26-1.47-.92-.47-1.44-.91-2.89-1.37-4.34,0-.02,0-.05-.01-.07-.08-.25-.15-.55-.52-.44-.37.11-.25.39-.17.65.34,1.09.68,2.17,1.01,3.26.21.7-.09,1.3-.74,1.51-.66.21-1.27-.11-1.48-.81-1.21-3.88-2.42-7.76-3.63-11.64-.02-.06-.01-.12-.03-.21.37-.12.74-.24,1.11-.36,3.31-1.03,6.63-2.05,9.94-3.08.22-.07.36-.03.54.12,1.28,1.02,2.59,2,3.86,3.03.28.23.52.57.63.91.36,1.08.66,2.18.97,3.27.13.47-.17,1-.64,1.18-.21.08-.43.14-.68.21Z"/>
    <path class="cls-1" d="M126.36,4.91c2.05,1.04,4.07,2.07,6.09,3.09.18.09.23.19.23.38.01,2.67.03,5.33.06,8,.01.94-.23,1.77-.8,2.53-.82,1.11-1.61,2.24-2.4,3.37-.55.79-1.09,1.59-1.63,2.39-.04.06-.1.12-.21.25,0-.2,0-.31,0-.43,0-1.47,0-2.94,0-4.41,0-.19.05-.4.13-.58.44-1.04.89-2.07,1.34-3.1.13-.28.13-.52-.01-.81-.41-.83-.79-1.67-1.19-2.51-.1-.2-.15-.48-.46-.48-.31,0-.37.26-.46.48-.96,2.17-1.92,4.34-2.89,6.51-.28.63-.86,1-1.47.94-.73-.07-1.22-.47-1.36-1.21-.05-.25,0-.55.07-.8.84-2.95,1.7-5.9,2.56-8.84.09-.32.27-.61.42-.9.65-1.28,1.31-2.56,1.98-3.87Z"/>
    <path class="cls-1" d="M123.17,9.83c-.18.63-.35,1.22-.53,1.8-.02.07-.14.17-.22.17-2.05,0-4.1,0-6.18,0,.04-.17.07-.32.1-.5.48,0,.95,0,1.43,0,.26,0,.45-.1.43-.35-.02-.25-.18-.42-.48-.4-.32.02-.64.01-.96,0-.5-.02-.62-.15-.68-.73h7.07Z"/>
    <path class="cls-1" d="M110.26,35.21c-.91-1.44-1.79-2.85-2.7-4.29,1.43-.9,2.85-1.78,4.3-2.69.89,1.42,1.78,2.83,2.7,4.29-1.44.9-2.85,1.79-4.3,2.69ZM111.66,31.96c-.09-.11-.14-.16-.18-.22-.29-.45-.57-.9-.86-1.35-.13-.2-.33-.3-.5-.13-.09.09-.12.35-.06.48.12.28.32.52.48.79.3.48.59.97.9,1.44.2.31.54.33.63.03.15-.5.25-1.03.34-1.55.01-.09-.16-.3-.25-.3-.13,0-.3.11-.37.23-.09.15-.09.35-.14.59Z"/>
    <path class="cls-1" d="M118.98,28.88c1.6.62,3.16,1.22,4.74,1.83-.62,1.59-1.22,3.15-1.83,4.72-1.59-.61-3.15-1.21-4.74-1.82.61-1.59,1.21-3.14,1.83-4.73ZM119.61,31.63c.03.51.04,1,.09,1.49.01.15.1.38.19.4.13.03.34-.05.46-.15.4-.36.78-.74,1.17-1.12.22-.22.48-.41.66-.65.09-.12.11-.37.04-.5-.11-.2-.32-.16-.49,0-.05.05-.11.09-.16.15-.12.16-.25.19-.43.09-.12-.07-.26-.11-.4-.15-.3-.09-.53-.21-.49-.61.01-.11-.21-.33-.35-.35-.21-.03-.31.16-.31.38,0,.35,0,.69,0,1.02Z"/>
    <path class="cls-1" d="M104.95-.17c.02-.53.49-1.02.97-1,.51.02.98.5.97,1-.01.55-.47.95-1.05.93-.49-.02-.91-.45-.89-.93Z"/>
    <path class="cls-1" d="M129.32,2.99c-.47,0-.88-.39-.89-.84-.02-.46.42-.88.9-.88.46,0,.88.42.87.87,0,.46-.41.86-.88.86Z"/>
    <path class="cls-1" d="M120.32,31.75c.17.06.33.12.52.2-.19.17-.34.3-.52.46v-.66Z"/>
  </g>
</svg>