<?xml version="1.0" encoding="UTF-8"?>
<svg id="Layer_1_Layer_2_Hue_Saturation_1_Image" data-name="Layer 1 + Layer 2 + Hue/Saturation 1 Image" xmlns="http://www.w3.org/2000/svg" width="145.92" height="72" version="1.1" viewBox="0 0 145.92 72">
  <defs>
    <style>
      .cls-1 {
        fill: #000;
      }

      .cls-1, .cls-2 {
        stroke-width: 0px;
      }

      .cls-3 {
        opacity: .1;
      }

      .cls-2 {
        fill: #fff;
      }

      .cls-4 {
        opacity: .25;
      }
    </style>
  </defs>
  <g>
    <path class="cls-1" d="M82.78,45.47c-.51.45-1.04.88-1.52,1.35-2.34,2.33-4.65,4.69-7.01,6.99-3.65,3.56-9.36,3.85-13.35.72-4.52-3.53-5.06-10.52-1.04-14.74,2.76-2.91,5.6-5.74,8.5-8.51,3.97-3.79,10.22-3.71,14.07.08,1.09,1.07,1.15,2.63.16,3.68-1.14,1.21-2.63,1.29-3.82.22-2.16-1.95-4.91-1.9-6.97.14-2.62,2.6-5.23,5.2-7.82,7.83-1.54,1.56-1.9,3.69-.99,5.57,1.34,2.79,5.2,3.43,7.48,1.23,1.66-1.61,3.29-3.26,4.91-4.91.33-.33.59-.42,1.05-.26,2.02.71,4.1.84,6.21.45.05.06.09.12.14.18Z"/>
    <path class="cls-1" d="M72.93,26.74c.27-.29.41-.47.57-.63,2.59-2.59,5.18-5.19,7.78-7.78,3.82-3.8,9.83-4.07,13.84-.63,4.24,3.64,4.64,10.32.74,14.45-2.78,2.95-5.65,5.81-8.59,8.6-3.83,3.63-9.82,3.64-13.7.16-1.49-1.34-1.55-3.03-.15-4.27.99-.88,2.47-.96,3.39-.01,1.83,1.89,5.12,2.13,7.37-.28,2.47-2.65,5.11-5.14,7.66-7.71,1.47-1.49,1.77-3.85.76-5.65-1.47-2.61-5.05-3.17-7.3-1.07-1.6,1.49-3.14,3.05-4.64,4.64-.56.59-1.01.73-1.8.46-1.87-.63-3.82-.72-5.94-.29Z"/>
  </g>
  <g class="cls-3">
    <path class="cls-1" d="M57.3,34.95c-.39-.13-.47-.45-.29-1.22h14.31c0,.33,0,.65,0,.97,0,.06-.06.16-.1.16-.36.01-.29.28-.29.49,0,6.57,0,13.14,0,19.7,0,.38.1.49.48.48.78-.03,1.56-.02,2.34,0,.31,0,.42-.08.42-.41-.02-.59,0-.59-.57-.69-.76-.13-1.32-.77-1.35-1.57-.02-.48-.02-.96,0-1.44.04-1.02.69-1.65,1.71-1.67.5,0,.99-.01,1.49,0,.93.03,1.59.69,1.62,1.62.01.44,0,.88,0,1.32,0,1.1-.61,1.72-1.72,1.79-.07,0-.14.01-.27.03,0,.24.01.48,0,.71-.01.24.09.33.32.32.58,0,1.16,0,1.74,0,.47,0,.74.22.74.58,0,.35-.27.58-.73.59-1.15,0-2.29,0-3.44,0-24.18,0-48.35,0-72.53,0-.2,0-.4,0-.59-.01-.37-.04-.59-.28-.56-.61.03-.36.24-.54.59-.54.69-.01,1.39,0,2.08-.01.05,0,.11-.02.2-.03v-1.32c-.11-.02-.23-.05-.35-.08-.65-.16-1.19-.68-1.22-1.31-.05-.94-.01-1.89-.01-2.79.19-.09.36-.18.53-.26.06-.03.17-.05.18-.03.03.07.07.18.04.22-.08.11-.2.2-.31.27-.28.17-.37.42-.33.73.04.27.19.4.47.31.38-.11.55,0,.55.39,0,.28-.01.57,0,.85.03.41.29.53.68.39.15-.06.36-.06.51,0,.38.14.65.05.67-.33.03-.79.03-1.59-.01-2.38,0-.15-.24-.38-.39-.4-.44-.05-.89-.02-1.39-.02-.11-.41-.46-.52-1-.39.35-.51.76-.75,1.27-.78.39-.03.79-.02,1.19,0,.82.04,1.48.68,1.51,1.5.03.85.03,1.7,0,2.55-.02.71-.52,1.28-1.21,1.47-.12.03-.25.05-.4.08v1.33h1.65c0-.45,0-.88,0-1.31,0-1.28.47-1.77,1.75-1.82.05,0,.11-.02.18-.03v-17.36c-.7-.23-.2-.79-.41-1.21h14.41c0,.32,0,.64,0,.96,0,.04-.02.11-.04.11-.55.14-.32.58-.32.89-.01,6.38,0,12.77,0,19.15v.62h3.38v-1.3c-.07-.03-.15-.06-.23-.08-.89-.19-1.37-.75-1.41-1.66-.02-.52,0-1.05,0-1.57,0-1.01,0-2.01,0-3.02,0-1.08.67-1.75,1.75-1.76.28,0,.57,0,.85,0,.93.03,1.59.68,1.63,1.61,0,.16-.02.32.01.47.03.12.12.24.18.35.06-.12.12-.25.16-.37.02-.05,0-.11,0-.17,0-6.14,0-12.29,0-18.43,0-.15.02-.3.03-.49.17.04.29.07.48.12v-1.83h4.44c.03-.19.06-.34.09-.54h1.06c0-.37,0-.69,0-1.01,0-.04,0-.11-.03-.12-.65-.26-.2-.79-.38-1.25.35,0,.63,0,.91,0,.92,0,1.84,0,2.76,0q.5,0,.57-.48c.81-.21,1.07-.12,1.19.45h3.63c.02-.16.04-.3.06-.47h1.1c.02.14.05.3.08.49h4.02c.21.69.12,1.11-.25,1.23-.01.02-.03.05-.03.08.01.34-.1.79.07.98.17.18.63.1.99.14.02.13.05.28.08.47h4.08c0,.17.01.31.02.52.15-.06.25-.1.36-.15.08-.03.16-.06.24-.09,0,.1.02.23-.04.3-.07.1-.2.15-.3.22-.25.17-.33.41-.28.7.05.27.2.43.48.29.3-.15.34.05.38.25.02.12,0,.25,0,.38,0,6.37,0,12.74,0,19.11v.33c-.28.09-.53.14-.73.26-.08.05-.06.26-.09.4.12-.03.23-.07.35-.1.08-.02.16-.03.24-.05-.01.09,0,.21-.04.27-.08.1-.2.16-.3.23-.27.18-.37.45-.28.74.04.13.23.26.37.3.18.04.37-.03.62-.06.05-.3.31-.33.63-.31.31.02.62,0,.93,0,.59.03,1.12.25,1.36.79.22.5.55.52,1.01.43v-17.16ZM34.7,25.64v29.87c1.15,0,2.26,0,3.38,0,.81,0,.71.11.71-.73,0-1.01,0-2.03,0-3.05h1.17c0,.17,0,.31,0,.45,0,.98,0,1.95,0,2.93,0,.25,0,.43.35.42.32,0,.33-.17.32-.41,0-.95,0-1.9,0-2.84,0-.18,0-.36,0-.54h1.17c0,1.13.01,2.21,0,3.3,0,.37.08.49.47.48,1.03-.03,2.07,0,3.1,0q.57,0,.57-.58c0-9.59,0-19.19,0-28.78v-.51h-11.24ZM65.65,51.73c0,.18,0,.33,0,.48,0,.96.02,1.92,0,2.89,0,.35.11.43.44.42.96-.02,1.92,0,2.89,0h.77v-20.59h-11.23v.59c0,3.41,0,6.82,0,10.23,0,2.02,0,4.05,0,6.07,0,.23.03.37.29.47.68.27,1.03.81,1.03,1.55,0,.55,0,1.09,0,1.64h2.81v-3.75h1.15c0,.18,0,.33,0,.48,0,.93,0,1.87,0,2.8,0,.57.08.62.71.42v-3.69h1.15ZM8.66,34.91v17.39c.47.09.89.16,1.33.24.01-.26.03-.52.05-.83.34,0,.64-.01.95,0,.07,0,.19.11.19.17.01.55,0,1.09,0,1.64-.23.02-.4.04-.58.06v1.93c.6,0,1.16-.02,1.72,0,.35.02.43-.11.43-.44-.02-1-.01-2.01,0-3.01,0-.12.12-.34.21-.35.3-.04.61-.02.97-.02v3.76c.65.1.65.1.65-.49,0-.78,0-1.56,0-2.34q0-1.01,1.01-.94s.08.02.18.06v3.72h4.07v-20.57h-11.19ZM47.11,35.31c0,.34.01.61,0,.88-.01.24.09.33.32.32.25-.01.5,0,.79,0,0,.58.01,1.1-.01,1.62,0,.08-.16.21-.26.22-.27.03-.55.01-.81.01v1.2h1.06v1.82h-1.07v1.19c.29,0,.56-.02.82.01.1.01.26.14.26.23.02.52.01,1.04.01,1.62h-1.09v1.2h1.05v1.85h-1.05v1.19h1.05v1.86h-1.02c-.03.07-.05.09-.05.12,0,1.53,0,3.06-.01,4.58,0,.27.14.29.35.29.81,0,1.61,0,2.42,0,.42,0,.84,0,1.26,0,0-1.03,0-2.01,0-2.98,0-.48.16-.92.54-1.19.32-.24.37-.51.37-.87,0-6.82,0-13.64,0-20.47,0-.34-.03-.68,0-1.02.04-.41-.13-.49-.51-.49-1.32.02-2.63,0-3.95,0-.15,0-.3.01-.46.02v1.88c.28,0,.54-.02.78,0,.11.01.28.13.28.2.02.53.01,1.07.01,1.66h-1.08v1.18h1.06v1.84h-1.09ZM33.47,38.35h-1.06v-1.86h1.05v-1.15c-.37-.02-.71-.03-1.05-.05v-1.8c.37-.02.71-.04,1.04-.05v-1.14c-.37-.02-.7-.03-1.04-.05v-1.83h1.05v-1.86h-4.9c0,.2,0,.36,0,.53,0,6.24,0,12.48,0,18.72,0,.17-.02.34.01.51.02.09.12.21.21.24.37.13.74.23,1.12.34.1-.19.99-.34,1.15-.16.03.03.04.08.04.11,0,.55,0,1.09,0,1.65-.26.02-.47.04-.68.05v1.13c.23.02.44.04.65.06v1.79c-.39.03-.78-.02-1.11.09-.46.16-.88.44-1.38.7v1.12c.05.03.08.05.1.05,1.51,0,3.03.01,4.54.02.25,0,.27-.14.27-.33,0-1.44,0-2.89,0-4.33,0-.25-.07-.36-.34-.34-.25.02-.5,0-.73,0v-1.88h1.04v-1.17h-1.07c0-.57-.01-1.09.01-1.61,0-.08.16-.22.26-.23.26-.03.53-.01.81-.01v-1.17c-.37-.02-.71-.03-1.08-.05,0-.56-.01-1.06.01-1.57,0-.09.18-.22.29-.24.26-.04.52-.01.78-.01v-1.2h-1.04v-1.81c.37-.02.7-.03,1.05-.05v-1.17ZM25.94,48.45q-.08-1.18-1.25-1.17s-.06,0-.08,0c-.48.01-.63.15-.63.64,0,.71,0,1.41,0,2.12,0,.79,0,1.58,0,2.37.01.47.26.6.7.44.16-.06.38-.02.54.04.26.09.37.08.36-.23-.02-.62-.02-1.24,0-1.86,0-.38.03-.76.09-1.13.07-.41.18-.81.27-1.21ZM29.22,51.34h0c0-.25,0-.51,0-.76,0-.78-.08-.85-.84-.87-.16,0-.37-.06-.48-.17-.44-.43-.87-.34-1.05.23-.06.19-.1.38-.11.58-.01.66,0,1.33,0,2,0,.51.4.79.86.56.27-.13.46-.15.74,0,.44.24.86-.05.87-.55.01-.34,0-.68,0-1.02ZM55.97,55.49c.03-.37.17-.67.56-.7.5-.05.59.37.71.74.31,0,.59,0,.87,0,.33,0,.54-.16.55-.51.01-.4.01-.79,0-1.19-.01-.32-.2-.49-.52-.49-.81,0-1.61,0-2.42,0-.34,0-.52.19-.52.54,0,.33,0,.65,0,.98,0,.56.16.69.77.64ZM54.04,54.75c-.08-1.08-.05-2.08,1.13-2.6-.18-.06-.31-.09-.44-.09-.59,0-1.19,0-1.78,0-.48,0-.63.15-.63.64,0,.69,0,1.39,0,2.08,0,.65.25.83.93.66.02-.46.27-.68.79-.7ZM75.88,52.1c0-.23,0-.45,0-.68,0-.32-.18-.5-.5-.51-.49-.01-.99-.02-1.48,0-.3,0-.47.19-.48.49-.01.47-.04.94.01,1.4.02.17.21.37.38.47.22.13.32-.05.42-.25.16-.34.62-.35.76,0,.12.29.31.35.51.24.16-.09.31-.3.37-.49.06-.21.01-.45.01-.67ZM8.67,55.48c.66.09.74.03.74-.61,0-.3,0-.59,0-.89,0-.29-.12-.45-.43-.46-.64,0-1.27,0-1.91,0-.25,0-.4.12-.4.38,0,.41-.03.82.02,1.23.02.14.2.31.35.36.21.08.36,0,.46-.27.06-.19.33-.38.53-.43.29-.07.5.15.57.45.02.08.04.16.06.23ZM25.39,55.52c.62,0,1.2,0,1.78-.01.08,0,.21-.15.21-.23.02-.36.01-.73.01-1.08-.28-.07-.55-.07-.74-.18-.44-.26-.77.13-1.17.15-.03,0-.09.11-.09.17,0,.38,0,.76,0,1.19Z"/>
    <path class="cls-1" d="M18.66,24.01c1.23,0,2.46,0,3.69,0,.13,0,.29-.04.37.02.18.15.43.34.44.53,0,.19-.21.43-.39.56-.14.1-.38.06-.58.06-2.43,0-4.87,0-7.3,0-.1,0-.2,0-.3,0-.36-.03-.59-.23-.58-.6,0-.37.24-.56.61-.56.45,0,.91,0,1.36,0,.89,0,1.78,0,2.67,0Z"/>
    <path class="cls-1" d="M61.16,25.3c.64,0,1.27,0,1.91,0,.47,0,.73.22.73.59,0,.36-.26.58-.73.59-1.27,0-2.55,0-3.82,0-.49,0-.77-.23-.75-.61.01-.35.28-.56.75-.56.64,0,1.27,0,1.91,0Z"/>
    <path class="cls-1" d="M23.2,22.86c-.61,0-1.22,0-1.82,0-.44,0-.7-.21-.71-.56-.01-.36.26-.6.71-.6,1.23,0,2.46,0,3.69,0,.46,0,.72.24.71.6-.01.35-.26.55-.71.56-.62,0-1.24,0-1.87,0Z"/>
    <path class="cls-1" d="M58.36,22.99c.62,0,1.24,0,1.87,0,.41,0,.64.22.66.56.01.33-.23.58-.63.59-1.27.01-2.54.01-3.82,0-.4,0-.65-.24-.66-.57,0-.35.25-.58.68-.59.64,0,1.27,0,1.91,0h0Z"/>
    <path class="cls-1" d="M63.29,22.99c.25,0,.51,0,.76,0,.35.02.55.22.57.56.01.33-.18.56-.5.58-.56.03-1.13.03-1.69,0-.32-.02-.5-.26-.48-.59.02-.31.2-.53.54-.54.27-.01.53,0,.8,0,0,0,0,0,0,0Z"/>
    <path class="cls-1" d="M28.17,22.85c-.27,0-.54.01-.8,0-.33-.02-.51-.22-.53-.55-.01-.33.17-.56.49-.58.56-.03,1.12-.04,1.68,0,.32.02.5.26.48.59-.01.33-.2.52-.53.55-.27.02-.53,0-.8,0,0,0,0,0,0,0Z"/>
    <path class="cls-1" d="M53.55,27.37v1.08s-.05,0-.08,0v-1.07s.05,0,.08-.01Z"/>
    <path class="cls-1" d="M26.97,28.08c.13-.16.26-.33.4-.48.01-.02.12.02.14.05.03.06.04.16,0,.2-.12.13-.27.23-.4.35-.05-.04-.1-.08-.14-.12Z"/>
    <path class="cls-2" d="M34.7,25.64h11.24v.51c0,9.59,0,19.19,0,28.78q0,.58-.57.58c-1.03,0-2.07-.02-3.1,0-.39.01-.47-.12-.47-.48.02-1.09,0-2.18,0-3.3h-1.17c0,.18,0,.36,0,.54,0,.95,0,1.9,0,2.84,0,.23,0,.4-.32.41-.35,0-.35-.18-.35-.42,0-.98,0-1.95,0-2.93,0-.14,0-.28,0-.45h-1.17c0,1.02,0,2.04,0,3.05,0,.84.1.72-.71.73-1.11,0-2.23,0-3.38,0v-29.87ZM37.19,50.5v-1.8h-1.1v1.8h1.1ZM38.51,50.48h1.12v-1.79h-1.12v1.79ZM36.07,32.24h1.12v-1.8h-1.12v1.8ZM39.65,30.46h-1.12v1.78h1.12v-1.78ZM40.97,30.47v1.77h1.14c0-.31,0-.59,0-.87q0-1.02-1.03-.94s-.05.02-.11.04ZM36.07,33.49v1.8h1.12v-1.8h-1.12ZM39.63,35.3v-1.8h-1.11v1.8h1.11ZM42.08,35.3v-1.8h-1.11v1.8h1.11ZM42.09,48.66c-.33,0-.61-.01-.89,0-.09,0-.24.1-.24.15-.02.55-.01,1.11-.01,1.67h1.14v-1.83ZM36.07,47.45h1.12v-1.8h-1.12v1.8ZM39.67,47.45c0-.36,0-.69,0-1.03-.02-.92.18-.79-.84-.8-.04,0-.1-.01-.12,0-.07.06-.19.14-.19.21-.02.53,0,1.06,0,1.61h1.17ZM42.08,47.45v-1.8h-1.12v1.8h1.12ZM36.05,51.73c0,.56,0,1.08,0,1.6,0,.08.13.22.21.23.3.03.61.01.92.01v-1.83h-1.15ZM36.06,44.4h1.14v-1.77h-1.14v1.77ZM39.64,44.4v-1.79h-1.12v1.79h1.12ZM40.97,42.61v1.79h1.12v-1.79h-1.12ZM36.06,29.2h1.14v-1.77h-1.14v1.77ZM42.1,27.42h-1.12v1.77h1.12v-1.77ZM39.64,29.2v-1.78h-1.12v1.78h1.12ZM43.4,53.54h1.15c0-.31,0-.58,0-.86q0-1.02-1.01-.96s-.08.03-.13.05v1.77ZM44.54,47.46c0-.32,0-.6,0-.88q0-1.03-1.04-.95s-.05.02-.09.03v1.8h1.13ZM43.4,50.52c.32,0,.59.02.86,0,.1,0,.26-.11.26-.18.02-.54.01-1.09.01-1.64h-1.13v1.83ZM44.54,32.24c0-.36,0-.7,0-1.03-.02-.9.16-.78-.82-.79-.04,0-.1-.01-.12,0-.08.06-.21.13-.21.2-.02.54,0,1.09,0,1.62h1.16ZM43.38,44.43c.34,0,.64.02.93-.01.08,0,.22-.14.22-.22.02-.52.01-1.04.01-1.61-.34,0-.64-.02-.93.01-.08,0-.22.14-.22.22-.02.52-.01,1.04-.01,1.61ZM43.38,35.32c.36,0,.65.02.92-.01.09,0,.23-.14.23-.21.02-.53.01-1.06.01-1.63-.34,0-.62-.02-.9.01-.1.01-.25.15-.25.23-.02.52-.01,1.04-.01,1.61ZM43.38,29.17c1.15.2,1.17.18,1.17-.86,0-.04,0-.08,0-.13,0-.88-.02-.9-.9-.78-.1.01-.25.17-.26.27-.03.49-.01.99-.01,1.5ZM43.41,36.53v1.19c.31-.04.44.07.42.37,0,.08.12.17.18.26.07-.08.17-.16.19-.25.04-.17-.03-.38.25-.4.04,0,.09-.13.1-.2.14-.91.04-1.02-.86-.99-.08,0-.16.01-.27.02ZM42.04,38.11v-1.57h-1.12c.03.48.05.93.08,1.37.42-.33.7-.22,1.04.2ZM39.64,37.64v-1.1h-1.11v1.35c.37-.08.71-.16,1.11-.25ZM37.2,36.54h-1.13v1.14c.39.05.75.09,1.13.14v-1.28ZM40.94,41.35q1.17.15,1.17-.93c0-.16,0-.31,0-.47,0-.12-.03-.24-.04-.36-.04,0-.08,0-.13.01v1h-.64c0-.31.01-.57,0-.84,0-.07-.1-.14-.15-.2-.04.06-.12.12-.13.18-.04.53-.06,1.06-.08,1.61ZM38.52,40.64v.73h1.21c-.09-.35-.16-.65-.23-.95-.04.05-.08.09-.11.14-.28.03-.55.05-.87.08ZM37.2,40.73c-.2-.1-.37-.18-.54-.26-.32.19-.85.27-.54.9h1.08v-.64ZM44.22,40.46c-.27.09-.47.14-.67.22-.06.02-.15.1-.15.15,0,.06.08.17.13.17.19,0,.41.02.55-.07.1-.07.09-.3.13-.47Z"/>
    <path class="cls-2" d="M65.65,51.73h-1.15v3.69c-.63.2-.7.15-.71-.42,0-.93,0-1.87,0-2.8,0-.15,0-.3,0-.48h-1.15v3.75h-2.81c0-.55,0-1.09,0-1.64,0-.75-.35-1.28-1.03-1.55-.26-.1-.29-.24-.29-.47,0-2.02,0-4.05,0-6.07,0-3.41,0-6.82,0-10.23v-.59h11.23v20.59h-.77c-.96,0-1.92-.01-2.89,0-.32,0-.44-.08-.44-.42.02-.96,0-1.92,0-2.89,0-.15,0-.3,0-.48ZM59.91,47.44h1.12v-1.79h-1.12v1.79ZM59.92,48.68v1.8h1.12v-1.8h-1.12ZM63.48,50.49v-1.8h-1.12v1.8h1.12ZM68.35,50.5v-1.8h-1.11v1.8h1.11ZM61.05,51.74h-1.13v1.8h1.13v-1.8ZM68.37,51.74h-1.13v1.79h1.13v-1.79ZM61.05,36.54h-1.12v1.8h1.12v-1.8ZM64.8,44.4h1.15c0-.55,0-1.07-.01-1.58,0-.08-.14-.21-.22-.22-.3-.03-.61-.01-.92-.01v1.82ZM59.93,42.6v1.79h1.11v-1.79h-1.11ZM62.36,44.43c.33,0,.63.02.92-.01.09,0,.23-.16.23-.25.02-.44.02-.88,0-1.31,0-.09-.11-.25-.18-.26-.31-.03-.63-.01-.96-.01v1.84ZM68.38,38.3v-1.76h-1.17c0,.31,0,.59,0,.87q0,1.02,1.03.95s.05-.02.15-.05ZM62.36,47.44h1.12v-1.78h-1.12v1.78ZM68.38,47.45c0-.55,0-1.06,0-1.56,0-.09-.11-.25-.18-.26-.26-.03-.53-.02-.8,0-.06,0-.17.12-.17.18-.01.54,0,1.09,0,1.64h1.17ZM62.36,38.36c.33,0,.62.02.89,0,.09,0,.24-.12.24-.19.02-.54.01-1.08.01-1.62h-1.15v1.82ZM68.36,42.58c-.33,0-.63-.01-.94,0-.08,0-.2.12-.2.19-.02.53,0,1.06,0,1.61h1.15v-1.81ZM62.37,41.4c.32,0,.61.02.9-.01.09-.01.23-.16.23-.25.03-.44.02-.87,0-1.31,0-.09-.12-.24-.19-.25-.31-.03-.63-.01-.95-.01v1.84ZM65.92,48.69h-1.12v1.8h1.12v-1.8ZM68.38,41.37c0-.37,0-.69,0-1.02-.02-.91.19-.79-.85-.8-.03,0-.07-.01-.08,0-.08.07-.22.15-.23.22-.02.52-.01,1.04-.01,1.59h1.17ZM65.92,45.64h-1.11v1.79h1.11v-1.79ZM59.91,41.36h1.12v-1.78h-1.12v1.78ZM64.8,36.52v1.85c.39-.05.74-.1,1.1-.14v-1.71h-1.1ZM65.88,40.04c-.57.26-.69.2-.8-.23-.02-.09-.1-.17-.15-.25-.05.08-.14.17-.15.25-.01.44-.02.87,0,1.31,0,.09.11.25.18.26.31.03.63.01,1.01.01-.03-.48-.06-.88-.09-1.35Z"/>
    <path class="cls-2" d="M8.66,34.91h11.19v20.57h-4.07v-3.72c-.1-.03-.14-.05-.18-.06q-1.01-.07-1.01.94c0,.78,0,1.56,0,2.34,0,.59,0,.59-.65.49v-3.76c-.36,0-.67-.03-.97.02-.09.01-.21.23-.21.35-.02,1-.02,2.01,0,3.01,0,.33-.08.45-.43.44-.56-.03-1.13,0-1.72,0v-1.93c.18-.02.35-.04.58-.06,0-.55,0-1.1,0-1.64,0-.06-.12-.16-.19-.17-.31-.02-.61,0-.95,0-.02.31-.03.57-.05.83-.44-.08-.86-.16-1.33-.24v-17.39ZM14.91,48.69v1.8h1.12v-1.8h-1.12ZM18.49,48.7h-1.12v1.78h1.12v-1.78ZM18.47,53.54v-1.8h-1.1v1.8h1.1ZM14.91,45.63v1.81h1.11v-1.81h-1.11ZM11.16,36.54h-1.12v1.79h1.12v-1.79ZM11.19,47.45c0-.31,0-.6,0-.9q0-1.04-1.05-.92s-.05.02-.09.04v1.77h1.14ZM10.02,42.58c0,.39,0,.7,0,1.01,0,.91,0,.92.9.83.1-.01.26-.16.27-.26.03-.44.03-.87,0-1.31,0-.09-.14-.24-.23-.25-.29-.03-.59-.01-.93-.01ZM13.59,42.59c-.32,0-.62-.01-.91,0-.08,0-.22.11-.22.18-.02.54-.01,1.09-.01,1.63h1.14v-1.82ZM18.51,47.45c0-.55,0-1.07,0-1.59,0-.08-.13-.22-.21-.23-.3-.03-.61-.01-.93-.01v1.83h1.15ZM13.6,45.64h-1.12v1.8h1.12v-1.8ZM17.37,36.52v1.8h1.11v-1.8h-1.11ZM16.06,38.3c0-.28,0-.57,0-.86,0-1.05-.04-1.08-1.18-.87,0,.28,0,.57,0,.86q0,1.01,1.01.93s.08-.03.17-.06ZM14.91,44.39h1.13v-1.78h-1.13v1.78ZM12.44,39.58c0,.32,0,.6,0,.88,0,1.05.03,1.07,1.09.91.01,0,.02-.01.06-.03v-1.76h-1.14ZM12.44,36.53c0,.31,0,.58,0,.86q0,1.04,1.06.95s.05-.03.09-.05v-1.76h-1.15ZM10.05,48.68v1.81h1.1v-1.81h-1.1ZM13.58,50.49v-1.81h-1.1v1.81h1.1ZM11.16,39.58h-1.11v1.78h1.11v-1.78ZM17.37,42.63v1.77h1.14v-.88q0-1.01-1.01-.93s-.08.02-.13.04ZM18.48,41.37v-1.79h-1.11v1.79h1.11ZM14.89,41.37h1.18c0-.45,0-.87,0-1.3,0-.54-.02-.55-.54-.52-.24,0-.31.11-.33.33-.01.12-.13.24-.19.36-.04.08-.11.16-.11.24-.01.28,0,.56,0,.89Z"/>
    <path class="cls-2" d="M47.11,35.31h1.09v-1.84h-1.06v-1.18h1.08c0-.59.01-1.12-.01-1.66,0-.07-.18-.19-.28-.2-.25-.03-.5,0-.78,0v-1.88c.16,0,.31-.02.46-.02,1.32,0,2.63.01,3.95,0,.37,0,.55.08.51.49-.03.34,0,.68,0,1.02,0,6.82,0,13.64,0,20.47,0,.36-.04.63-.37.87-.38.28-.54.71-.54,1.19,0,.97,0,1.95,0,2.98-.43,0-.84,0-1.26,0-.81,0-1.61,0-2.42,0-.21,0-.36-.03-.35-.29,0-1.53,0-3.06.01-4.58,0-.03.02-.05.05-.12h1.02v-1.86h-1.05v-1.19h1.05v-1.85h-1.05v-1.2h1.09c0-.58.01-1.1-.01-1.62,0-.08-.16-.21-.26-.23-.26-.03-.53-.01-.82-.01v-1.19h1.07v-1.82h-1.06v-1.2c.26,0,.54.02.81-.01.1-.01.25-.14.26-.22.02-.52.01-1.04.01-1.62-.29,0-.54,0-.79,0-.23.01-.34-.08-.32-.32.01-.27,0-.53,0-.88ZM50.65,47.45c0-.56,0-1.09,0-1.62,0-.07-.13-.19-.21-.19-.3-.02-.61,0-.91,0v1.82h1.12ZM49.52,50.52c.32,0,.61.02.89,0,.09,0,.23-.13.23-.21.02-.53.01-1.06.01-1.61h-1.13v1.83ZM49.49,44.38c1.14.19,1.16.18,1.16-.88,0-.04,0-.08,0-.13,0-.85,0-.85-.86-.79-.21.01-.31.08-.3.3,0,.49,0,.98,0,1.5ZM49.52,51.76v1.78h1.13c0-.3,0-.58,0-.86q0-1.06-1.06-.95s-.02.01-.07.03ZM49.49,32.22q1.16.16,1.16-.91s0-.06,0-.08c0-.88,0-.89-.88-.8-.1.01-.27.16-.27.26-.03.5-.01,1.01-.01,1.54ZM49.49,36.54c0,.44,0,.86,0,1.27q0,.54.56.54t.61-.62c0-.08,0-.17,0-.25q0-1.07-1.16-.94ZM50.65,34.38q0-.97-.85-.92s-.03,0-.04,0c-.09.09-.25.18-.26.28-.03.42,0,.84-.01,1.27,0,.2.06.29.29.31.88.05.88.06.88-.82,0-.04,0-.08,0-.13ZM50.65,41.39c0-.38,0-.7,0-1.03,0-.89,0-.9-.88-.8-.1.01-.26.16-.27.26-.03.44-.02.87,0,1.31,0,.09.12.24.2.25.3.03.61.01.95.01Z"/>
    <path class="cls-2" d="M33.47,38.35v1.17c-.35.02-.68.03-1.05.05v1.81h1.04v1.2c-.26,0-.52-.02-.78.01-.11.02-.28.15-.29.24-.03.51-.01,1.01-.01,1.57.37.02.71.03,1.08.05v1.17c-.28,0-.55-.02-.81.01-.1.01-.25.14-.26.23-.02.52-.01,1.04-.01,1.61h1.07v1.17h-1.04v1.88c.24,0,.49.01.73,0,.26-.02.34.09.34.34,0,1.44,0,2.89,0,4.33,0,.19-.02.33-.27.33-1.51-.01-3.03-.01-4.54-.02-.02,0-.05-.02-.1-.05v-1.12c.5-.26.92-.54,1.38-.7.33-.11.72-.07,1.11-.09v-1.79c-.21-.02-.42-.04-.65-.06v-1.13c.21-.02.41-.03.68-.05,0-.56,0-1.1,0-1.65,0-.04-.02-.09-.04-.11-.16-.19-1.06-.03-1.15.16-.38-.11-.76-.21-1.12-.34-.09-.03-.19-.14-.21-.24-.04-.16-.01-.34-.01-.51,0-6.24,0-12.48,0-18.72,0-.17,0-.33,0-.53h4.9v1.86h-1.05v1.83c.34.02.67.03,1.04.05v1.14c-.33.02-.67.03-1.04.05v1.8c.34.02.68.03,1.05.05v1.15h-1.05v1.86h1.06ZM29.97,33.49v1.8h1.11v-1.8h-1.11ZM31.08,32.24v-1.83c-.32,0-.61-.01-.91,0-.08,0-.21.12-.22.18-.02.54,0,1.09,0,1.63h1.13ZM31.08,38.33v-1.81h-1.1v1.81h1.1ZM31.11,47.46c0-.57,0-1.1,0-1.63,0-.07-.13-.19-.21-.19-.3-.02-.61,0-.91,0v1.83h1.13ZM31.09,42.58c-.34,0-.63-.01-.93,0-.08,0-.2.12-.21.19-.02.53,0,1.06,0,1.62h1.14v-1.82ZM29.97,39.58v1.79h1.1v-1.79h-1.1Z"/>
    <path class="cls-2" d="M25.94,48.45c-.09.4-.21.8-.27,1.21-.06.37-.08.75-.09,1.13-.01.62,0,1.24,0,1.86,0,.31-.1.32-.36.23-.17-.06-.38-.1-.54-.04-.44.16-.69.03-.7-.44-.02-.79,0-1.58,0-2.37,0-.71,0-1.41,0-2.12,0-.48.15-.63.63-.64.03,0,.06,0,.08,0q1.17,0,1.25,1.17Z"/>
    <path class="cls-2" d="M29.22,51.34c0,.34,0,.68,0,1.02-.01.5-.44.79-.87.55-.28-.15-.47-.13-.74,0-.46.23-.85-.05-.86-.56,0-.67-.01-1.33,0-2,0-.19.05-.39.11-.58.18-.58.61-.66,1.05-.23.11.11.31.16.48.17.76.02.84.09.84.87,0,.25,0,.51,0,.76h0Z"/>
    <path class="cls-2" d="M55.97,55.49c-.61.04-.76-.09-.77-.64,0-.33,0-.65,0-.98,0-.35.18-.53.52-.54.81,0,1.61,0,2.42,0,.32,0,.51.17.52.49.01.4.01.79,0,1.19,0,.35-.22.5-.55.51-.28,0-.56,0-.87,0-.12-.36-.21-.78-.71-.74-.39.04-.53.33-.56.7Z"/>
    <path class="cls-2" d="M54.04,54.75c-.52.01-.78.24-.79.7-.68.17-.93,0-.93-.66,0-.69,0-1.39,0-2.08,0-.49.15-.64.63-.64.59,0,1.19,0,1.78,0,.13,0,.27.03.44.09-1.18.51-1.21,1.52-1.13,2.6Z"/>
    <path class="cls-2" d="M75.88,52.1c0,.23.05.47-.01.67-.06.19-.2.39-.37.49-.21.12-.39.06-.51-.24-.15-.35-.6-.35-.76,0-.1.21-.2.38-.42.25-.17-.1-.36-.3-.38-.47-.05-.46-.03-.93-.01-1.4,0-.3.19-.48.48-.49.49-.01.99,0,1.48,0,.32,0,.49.18.5.51,0,.23,0,.45,0,.68Z"/>
    <path class="cls-2" d="M8.67,55.48c-.02-.07-.04-.15-.06-.23-.08-.3-.28-.51-.57-.45-.21.05-.47.24-.53.43-.09.28-.25.35-.46.27-.15-.06-.33-.23-.35-.36-.05-.4-.02-.82-.02-1.23,0-.27.15-.38.4-.38.64,0,1.27,0,1.91,0,.3,0,.43.16.43.46,0,.3,0,.59,0,.89,0,.63-.08.7-.74.61Z"/>
    <path class="cls-2" d="M25.39,55.52c0-.43,0-.81,0-1.19,0-.06.05-.17.09-.17.39-.01.72-.41,1.17-.15.2.12.46.12.74.18,0,.35.01.72-.01,1.08,0,.08-.14.23-.21.23-.58.02-1.15.01-1.78.01Z"/>
    <path class="cls-1" d="M37.19,50.5h-1.1v-1.8h1.1v1.8Z"/>
    <path class="cls-1" d="M38.51,50.48v-1.79h1.12v1.79h-1.12Z"/>
    <path class="cls-1" d="M36.07,32.24v-1.8h1.12v1.8h-1.12Z"/>
    <path class="cls-1" d="M39.65,30.46v1.78h-1.12v-1.78h1.12Z"/>
    <path class="cls-1" d="M40.97,30.47c.06-.02.08-.04.11-.04q1.03-.08,1.03.94c0,.28,0,.56,0,.87h-1.14v-1.77Z"/>
    <path class="cls-1" d="M36.07,33.49h1.12v1.8h-1.12v-1.8Z"/>
    <path class="cls-1" d="M39.63,35.3h-1.11v-1.8h1.11v1.8Z"/>
    <path class="cls-1" d="M42.08,35.3h-1.11v-1.8h1.11v1.8Z"/>
    <path class="cls-1" d="M42.09,48.66v1.83h-1.14c0-.56,0-1.11.01-1.67,0-.06.16-.15.24-.15.28-.02.56,0,.89,0Z"/>
    <path class="cls-1" d="M36.07,47.45v-1.8h1.12v1.8h-1.12Z"/>
    <path class="cls-1" d="M39.67,47.45h-1.17c0-.55,0-1.08,0-1.61,0-.07.12-.15.19-.21.03-.02.08,0,.12,0,1.03.01.82-.12.84.8,0,.33,0,.67,0,1.03Z"/>
    <path class="cls-1" d="M42.08,47.45h-1.12v-1.8h1.12v1.8Z"/>
    <path class="cls-1" d="M36.05,51.73h1.15v1.83c-.31,0-.62.02-.92-.01-.08,0-.21-.15-.21-.23-.02-.52,0-1.04,0-1.6Z"/>
    <path class="cls-1" d="M36.06,44.4v-1.77h1.14v1.77h-1.14Z"/>
    <path class="cls-1" d="M39.64,44.4h-1.12v-1.79h1.12v1.79Z"/>
    <path class="cls-1" d="M40.97,42.61h1.12v1.79h-1.12v-1.79Z"/>
    <path class="cls-1" d="M36.06,29.2v-1.77h1.14v1.77h-1.14Z"/>
    <path class="cls-1" d="M42.1,27.42v1.77h-1.12v-1.77h1.12Z"/>
    <path class="cls-1" d="M39.64,29.2h-1.12v-1.78h1.12v1.78Z"/>
    <path class="cls-1" d="M43.4,53.54v-1.77c.06-.02.1-.04.13-.05q1.01-.06,1.01.96c0,.28,0,.56,0,.86h-1.15Z"/>
    <path class="cls-1" d="M44.54,47.46h-1.13v-1.8s.06-.03.09-.03q1.04-.08,1.04.95c0,.28,0,.56,0,.88Z"/>
    <path class="cls-1" d="M43.4,50.52v-1.83h1.13c0,.55,0,1.1-.01,1.64,0,.07-.17.17-.26.18-.27.02-.53,0-.86,0Z"/>
    <path class="cls-1" d="M44.54,32.24h-1.16c0-.54,0-1.08,0-1.62,0-.07.13-.14.21-.2.03-.02.08,0,.12,0,.98.01.8-.11.82.79,0,.33,0,.67,0,1.03Z"/>
    <path class="cls-1" d="M43.38,44.43c0-.57,0-1.09.01-1.61,0-.08.14-.21.22-.22.29-.03.59-.01.93-.01,0,.57,0,1.09-.01,1.61,0,.08-.14.21-.22.22-.29.03-.58.01-.93.01Z"/>
    <path class="cls-1" d="M43.38,35.32c0-.57-.01-1.09.01-1.61,0-.08.16-.22.25-.23.28-.03.56-.01.9-.01,0,.57,0,1.1-.01,1.63,0,.08-.14.2-.23.21-.28.03-.56.01-.92.01Z"/>
    <path class="cls-1" d="M43.38,29.17c0-.51-.01-1.01.01-1.5,0-.1.16-.26.26-.27.88-.12.9-.1.9.78,0,.04,0,.08,0,.13,0,1.04-.02,1.06-1.17.86Z"/>
    <path class="cls-1" d="M43.41,36.53c.11-.01.19-.02.27-.02.9-.03,1,.08.86.99-.01.07-.06.2-.1.2-.28.03-.21.24-.25.4-.02.09-.12.17-.19.25-.06-.09-.18-.18-.18-.26.02-.3-.11-.41-.42-.37v-1.19Z"/>
    <path class="cls-1" d="M42.04,38.11c-.35-.42-.63-.53-1.04-.2-.02-.44-.05-.89-.08-1.37h1.12v1.57Z"/>
    <path class="cls-1" d="M39.64,37.64c-.4.09-.75.17-1.11.25v-1.35h1.11v1.1Z"/>
    <path class="cls-1" d="M37.2,36.54v1.28c-.38-.05-.74-.09-1.13-.14v-1.14h1.13Z"/>
    <path class="cls-1" d="M40.94,41.35c.03-.55.05-1.08.08-1.61,0-.06.08-.12.13-.18.05.07.14.13.15.2.02.27,0,.53,0,.84h.64v-1s.08,0,.13-.01c.01.12.04.24.04.36,0,.15,0,.31,0,.47q0,1.08-1.17.93Z"/>
    <path class="cls-1" d="M38.52,40.64c.31-.03.59-.06.87-.08.04-.05.08-.09.11-.14.07.3.14.6.23.95h-1.21v-.73Z"/>
    <path class="cls-1" d="M37.2,40.73v.64h-1.08c-.31-.63.22-.71.54-.9.17.08.34.16.54.26Z"/>
    <path class="cls-1" d="M44.22,40.46c-.04.16-.03.4-.13.47-.14.09-.37.07-.55.07-.05,0-.13-.11-.13-.17,0-.05.09-.12.15-.15.2-.08.4-.13.67-.22Z"/>
    <path class="cls-1" d="M59.91,47.44v-1.79h1.12v1.79h-1.12Z"/>
    <path class="cls-1" d="M59.92,48.68h1.12v1.8h-1.12v-1.8Z"/>
    <path class="cls-1" d="M63.48,50.49h-1.12v-1.8h1.12v1.8Z"/>
    <path class="cls-1" d="M68.35,50.5h-1.11v-1.8h1.11v1.8Z"/>
    <path class="cls-1" d="M61.05,51.74v1.8h-1.13v-1.8h1.13Z"/>
    <path class="cls-1" d="M68.37,51.74v1.79h-1.13v-1.79h1.13Z"/>
    <path class="cls-1" d="M61.05,36.54v1.8h-1.12v-1.8h1.12Z"/>
    <path class="cls-1" d="M64.8,44.4v-1.82c.31,0,.62-.02.92.01.08,0,.22.14.22.22.02.52.01,1.04.01,1.58h-1.15Z"/>
    <path class="cls-1" d="M59.93,42.6h1.11v1.79h-1.11v-1.79Z"/>
    <path class="cls-1" d="M62.36,44.43v-1.84c.33,0,.65-.02.96.01.07,0,.18.16.18.26.02.44.02.88,0,1.31,0,.09-.14.24-.23.25-.29.03-.58.01-.92.01Z"/>
    <path class="cls-1" d="M68.38,38.3c-.1.03-.12.05-.15.05q-1.03.07-1.03-.95c0-.28,0-.56,0-.87h1.17v1.76Z"/>
    <path class="cls-1" d="M62.36,47.44v-1.78h1.12v1.78h-1.12Z"/>
    <path class="cls-1" d="M68.38,47.45h-1.17c0-.55,0-1.1,0-1.64,0-.06.11-.18.17-.18.27-.02.54-.03.8,0,.07,0,.18.16.18.26.02.5,0,1.01,0,1.56Z"/>
    <path class="cls-1" d="M62.36,38.36v-1.82h1.15c0,.53,0,1.08-.01,1.62,0,.07-.15.18-.24.19-.28.03-.56,0-.89,0Z"/>
    <path class="cls-1" d="M68.36,42.58v1.81h-1.15c0-.54,0-1.08,0-1.61,0-.07.13-.19.2-.19.3-.02.61,0,.94,0Z"/>
    <path class="cls-1" d="M62.37,41.4v-1.84c.32,0,.64-.02.95.01.07,0,.18.16.19.25.02.44.02.88,0,1.31,0,.09-.14.24-.23.25-.29.03-.58.01-.9.01Z"/>
    <path class="cls-1" d="M65.92,48.69v1.8h-1.12v-1.8h1.12Z"/>
    <path class="cls-1" d="M68.38,41.37h-1.17c0-.55,0-1.07.01-1.59,0-.08.14-.15.23-.22.02-.01.05,0,.08,0,1.04,0,.83-.11.85.8,0,.32,0,.65,0,1.02Z"/>
    <path class="cls-1" d="M65.92,45.64v1.79h-1.11v-1.79h1.11Z"/>
    <path class="cls-1" d="M59.91,41.36v-1.78h1.12v1.78h-1.12Z"/>
    <path class="cls-1" d="M64.8,36.52h1.1v1.71c-.36.05-.71.09-1.1.14v-1.85Z"/>
    <path class="cls-1" d="M65.88,40.04c.03.47.06.87.09,1.35-.38,0-.69.02-1.01-.01-.07,0-.18-.16-.18-.26-.02-.44-.02-.87,0-1.31,0-.09.1-.17.15-.25.05.08.13.16.15.25.11.43.23.49.8.23Z"/>
    <path class="cls-1" d="M14.91,48.69h1.12v1.8h-1.12v-1.8Z"/>
    <path class="cls-1" d="M18.49,48.7v1.78h-1.12v-1.78h1.12Z"/>
    <path class="cls-1" d="M18.47,53.54h-1.1v-1.8h1.1v1.8Z"/>
    <path class="cls-1" d="M14.91,45.63h1.11v1.81h-1.11v-1.81Z"/>
    <path class="cls-1" d="M11.16,36.54v1.79h-1.12v-1.79h1.12Z"/>
    <path class="cls-1" d="M11.19,47.45h-1.14v-1.77s.06-.04.09-.04q1.05-.12,1.05.92c0,.29,0,.58,0,.9Z"/>
    <path class="cls-1" d="M10.02,42.58c.35,0,.64-.02.93.01.09,0,.22.16.23.25.02.44.03.88,0,1.31,0,.1-.17.25-.27.26-.89.09-.9.08-.9-.83,0-.31,0-.62,0-1.01Z"/>
    <path class="cls-1" d="M13.59,42.59v1.82h-1.14c0-.55,0-1.09.01-1.63,0-.06.14-.17.22-.18.29-.02.59,0,.91,0Z"/>
    <path class="cls-1" d="M18.51,47.45h-1.15v-1.83c.32,0,.62-.02.93.01.08,0,.21.15.21.23.02.52,0,1.04,0,1.59Z"/>
    <path class="cls-1" d="M13.6,45.64v1.8h-1.12v-1.8h1.12Z"/>
    <path class="cls-1" d="M17.37,36.52h1.11v1.8h-1.11v-1.8Z"/>
    <path class="cls-1" d="M16.06,38.3c-.09.03-.13.05-.17.06q-1.01.08-1.01-.93c0-.29,0-.58,0-.86,1.14-.21,1.18-.19,1.18.87,0,.29,0,.58,0,.86Z"/>
    <path class="cls-1" d="M14.91,44.39v-1.78h1.13v1.78h-1.13Z"/>
    <path class="cls-1" d="M12.44,39.58h1.14v1.76s-.04.03-.06.03c-1.06.17-1.09.14-1.09-.91,0-.28,0-.56,0-.88Z"/>
    <path class="cls-1" d="M12.44,36.53h1.15v1.76s-.07.05-.09.05q-1.06.09-1.06-.95c0-.28,0-.56,0-.86Z"/>
    <path class="cls-1" d="M10.05,48.68h1.1v1.81h-1.1v-1.81Z"/>
    <path class="cls-1" d="M13.58,50.49h-1.1v-1.81h1.1v1.81Z"/>
    <path class="cls-1" d="M11.16,39.58v1.78h-1.11v-1.78h1.11Z"/>
    <path class="cls-1" d="M17.37,42.63s.09-.03.13-.04q1.01-.08,1.01.93v.88h-1.14v-1.77Z"/>
    <path class="cls-1" d="M18.48,41.37h-1.11v-1.79h1.11v1.79Z"/>
    <path class="cls-1" d="M14.89,41.37c0-.33,0-.61,0-.89,0-.08.07-.16.11-.24.06-.12.18-.23.19-.36.02-.23.09-.32.33-.33.52-.02.54-.01.54.52,0,.42,0,.84,0,1.3h-1.18Z"/>
    <path class="cls-1" d="M50.65,47.45h-1.12v-1.82c.3,0,.61-.01.91,0,.08,0,.2.12.21.19.02.53,0,1.07,0,1.62Z"/>
    <path class="cls-1" d="M49.52,50.52v-1.83h1.13c0,.55,0,1.08-.01,1.61,0,.08-.15.2-.23.21-.28.03-.56,0-.89,0Z"/>
    <path class="cls-1" d="M49.49,44.38c0-.52,0-1.01,0-1.5,0-.22.1-.28.3-.3.86-.06.86-.06.86.79,0,.04,0,.08,0,.13,0,1.06-.02,1.08-1.16.88Z"/>
    <path class="cls-1" d="M49.52,51.76s.05-.03.07-.03q1.06-.11,1.06.95c0,.28,0,.56,0,.86h-1.13v-1.78Z"/>
    <path class="cls-1" d="M49.49,32.22c0-.53-.01-1.03.01-1.54,0-.09.17-.25.27-.26.88-.09.88-.08.88.8,0,.03,0,.06,0,.08q0,1.07-1.16.91Z"/>
    <path class="cls-1" d="M49.49,36.54q1.16-.12,1.16.94c0,.08,0,.17,0,.25q0,.62-.61.62t-.56-.54c0-.42,0-.84,0-1.27Z"/>
    <path class="cls-1" d="M50.65,34.38s0,.08,0,.13c0,.88,0,.87-.88.82-.23-.01-.29-.1-.29-.31,0-.42-.01-.85.01-1.27,0-.1.16-.19.26-.28,0,0,.03,0,.04,0q.85-.05.85.92Z"/>
    <path class="cls-1" d="M50.65,41.39c-.35,0-.65.02-.95-.01-.08,0-.19-.16-.2-.25-.02-.44-.02-.87,0-1.31,0-.09.17-.25.27-.26.88-.1.88-.09.88.8,0,.32,0,.64,0,1.03Z"/>
    <path class="cls-1" d="M29.97,33.49h1.11v1.8h-1.11v-1.8Z"/>
    <path class="cls-1" d="M31.08,32.24h-1.13c0-.55,0-1.09,0-1.63,0-.07.14-.18.22-.18.29-.02.59,0,.91,0v1.83Z"/>
    <path class="cls-1" d="M31.08,38.33h-1.1v-1.81h1.1v1.81Z"/>
    <path class="cls-1" d="M31.11,47.46h-1.13v-1.83c.31,0,.61-.01.91,0,.08,0,.2.12.21.19.02.53,0,1.07,0,1.63Z"/>
    <path class="cls-1" d="M31.09,42.58v1.82h-1.14c0-.55,0-1.08,0-1.62,0-.07.13-.19.21-.19.29-.02.59,0,.93,0Z"/>
    <path class="cls-1" d="M29.97,39.58h1.1v1.79h-1.1v-1.79Z"/>
  </g>
  <g class="cls-4">
    <g class="cls-4">
      <path class="cls-1" d="M132.9,55.64c-1.77.88-3.63.87-5.62.7.07-.53.18-.99.19-1.44.01-.39-.05-.79-.14-1.17-.25-1.04-.45-2.09-.8-3.09-.57-1.61-.69-3.26-.8-4.94-.04-.61-.33-1.21-.5-1.81-.07,0-.14,0-.2-.01-.21.44-.47.86-.61,1.33-.29.92-1.07,1.46-1.6,2.2-.85,1.19-1.7,2.4-2.48,3.64-.41.65-.67,1.39-1.02,2.08-.41.8.14,2.38.95,2.77.17.08.27.31.4.48-.17.08-.35.16-.52.24-.02,0-.04,0-.06,0-1.03.12-1.95-.09-2.74-.83-.37-.34-.83-.58-1.24-.89-.33-.25-.5-.52-.15-.92.41-.47.78-.98,1.14-1.49.19-.27.34-.59.49-.89.64-1.24,1.22-2.52,1.91-3.73.56-.97,1.29-1.84,1.87-2.8.29-.48.48-1.06.57-1.61.17-.96.32-1.94.3-2.9-.01-.66.08-1.43-.52-1.98-.08-.08-.04-.31-.03-.47.07-.94.16-1.87.22-2.6-.99-.33-1.81-.54-2.57-.89-.29-.13-.54-.55-.63-.88-.13-.5-.08-1.04-.13-1.56-.04-.45-.09-.8.48-1.08.29-.14.36-.77.51-1.18.03-.08-.04-.23,0-.28.8-.94,1.22-2.2,2.38-2.84.13-.07.23-.22.36-.29.36-.2.79-.59,1.1-.52.86.2.56-.36.56-.79.21,0,.41-.07.57-.02.56.2.81-.13.97-.56.16-.44.31-.89.38-1.35.18-1.13,1.55-1.88,2.57-1.35.74.38,1.19,1.01,1.35,1.82.14.73-.49,1.12-.83,1.63-.06.09-.25.15-.25.23-.03.91-1.01.89-1.41,1.44-.05.06-.35-.06-.58-.12-.23.83-.11,1.68.11,2.56.21.86.26,1.76.4,2.76.42-.07.86-.07,1.23-.23.5-.22.9-.34,1.41.02.27.19.72.12,1.08.18.13.02.26.08.53.16-1.08.7-1.81,1.76-3.23,1.26-.62-.22-.93.17-.83.8.05.33.1.67.05.99-.13.85.1,1.64.24,2.46.23,1.37.31,2.76.44,4.14.1,1.05.2,2.09.25,3.14.02.5-.1,1-.11,1.51,0,.44.03.89.09,1.32.2,1.39.3,2.81.69,4.14.28.94.61,2.01,1.73,2.43.51.19,1.03.37,1.54.57.19.08.37.19.55.29v.23Z"/>
      <path class="cls-1" d="M109.15,21.5c.56.53,1.16,1.03,1.66,1.61.25.3.53.64-.14,1.06-.4.24-.79,1-.46,1.74-.5.21-.89.48-.91,1.08,0,.09-.33.18-.51.25-.15.06-.31.11-.46.16.06.17.08.36.18.5.67.89,1.36,1.75,1.37,2.96,0,.55.15,1.11.25,1.8.5-.28.92-.51,1.32-.76.28-.17.54-.39.82-.57.55-.34.71-.28.9.4.34-.31.64-.6.97-.87.08-.07.24-.04.37-.06,0,.12.06.29,0,.37-.48.64-.9,1.35-1.48,1.87-.64.58-1.42,1.02-2.17,1.46-.29.17-.37.32-.34.63.1,1.03.18,2.06.23,3.09.01.26-.1.52-.14.79-.04.28-.1.57-.1.85.07,2.3.19,4.6.23,6.9.02.83-.18,1.67-.2,2.5-.02,1.37.23,2.73.71,4.01.18.49.7.87,1.08,1.28.16.17.4.26.54.44.31.41.7.48,1.18.51.25.01.64.17.72.36.19.48-.29.54-.6.65-.21.07-.44.11-.66.16h-3.41c-.62-.07-.73-.45-.76-1.03-.04-.87-.18-1.74-.37-2.59-.23-1.04-.57-2.06-.82-3.1-.14-.58-.19-1.17-.28-1.83-.2.12-.35.21-.48.31-1.9,1.47-3.8,2.93-5.7,4.4-.06.04-.09.12-.12.19-.19.53-.4,1.06-.54,1.6-.07.28-.07.64.04.9.18.43.16.79-.14,1.13h-.47c-.39-.59-.9-1.14-1.15-1.79-.28-.73-.34-1.54-.49-2.31,0-.35,0-.7,0-1.06.47-.22,1-.36,1.39-.67.82-.66,1.65-1.34,2.32-2.14.74-.89,1.56-1.63,2.62-2.1.33-.15.4-.36.39-.69-.05-1.15-.09-2.29-.12-3.44-.01-.56.05-1.12-.42-1.57-.16-.16-.26-.46-.27-.69-.04-.93-.02-1.85-.03-2.78,0-.5.05-1.04-.09-1.5-.62-2-.97-4.04-.94-6.14.01-.96.37-1.77.96-2.51.21-.27.34-.63.43-.97.1-.4.16-.74.72-.7.16.01.41-.22.5-.4.1-.19.08-.46.07-.69-.05-1.08.19-2.05,1.06-2.78.06-.05.08-.17.12-.25.55,0,1.1,0,1.65,0Z"/>
      <path class="cls-2" d="M100.92,56.7c.3-.35.32-.7.14-1.13-.11-.26-.11-.61-.04-.9.13-.55.35-1.07.54-1.6.02-.07.06-.15.12-.19,1.9-1.47,3.8-2.94,5.7-4.4.13-.1.29-.18.48-.31.1.65.15,1.25.28,1.83.25,1.04.59,2.06.82,3.1.19.85.33,1.72.37,2.59.03.58.14.95.76,1.03h-9.17Z"/>
      <path class="cls-2" d="M98.81,52.59c.16.78.21,1.59.49,2.31.25.65.76,1.2,1.15,1.79h-1.65c0-1.37,0-2.74,0-4.11Z"/>
    </g>
    <g>
      <path class="cls-1" d="M90.48,51.18c.62-.31,1.25-.61,1.85-.95.2-.11.34-.34.52-.51,1.33-1.22,2.68-2.43,3.98-3.68.29-.28.52-.75.55-1.14.14-1.72-.18-3.39-.62-5.06-.25-.97-.14-1.97.3-2.91.11-.24.16-.51.23-.76.02-.06-.01-.14.02-.17.84-.72.35-1.71.52-2.56.31-1.48.41-3.01.72-4.49.32-1.52,1.15-2.71,2.67-3.32.51-.21.94-.49,1.06-1.18.12-.68.47-1.34.83-1.94.2-.33.64-.53.99-.76.17-.11.38-.16.57-.24.31,0,.63,0,.94,0,.69.43,1.23.99,1.53,1.76v1.29c-.07.02-.18.03-.21.08-.28.49-.55.99-.83,1.48-.08.14-.15.31-.27.42-.21.18-.46.33-.7.47-.38.22-.74.68-1.23.26-.29-.24-.55-.13-.71.05-.12.14-.13.43-.1.65.13,1,.43,1.99.4,2.98-.04,1.35-.25,2.71-.53,4.04-.29,1.41-.3,2.69.77,3.79.09.09.14.25.14.37.01.63-.04,1.26,0,1.88.04.54-.22.76-.69.79-.42.03-.85,0-1.24,0-.7,1.62-.38,3.5-1.05,5.19-.33.83-.59,1.7-.74,2.57-.17.95-.2,1.92-.24,2.89-.01.26.06.6.23.78.44.46.81,1.09,1.61,1.01.21-.02.46-.01.63.09.22.13.51.37.51.55,0,.2-.29.43-.5.58-.13.09-.34.08-.51.08-1.37-.05-2.74-.1-4.11-.18-.13,0-.36-.18-.36-.27.03-.83.1-1.66.17-2.49.02-.25.14-.49.16-.74.04-.71.04-1.41.08-2.12.02-.37.12-.74.19-1.2-.25.12-.4.16-.53.25-1.06.73-1.95,1.62-2.74,2.63-.25.31-.63.52-.88.83-.78.96-.81,2.09-.73,3.26.03.38-.13.78-.2,1.16h-.7c-.11-.13-.23-.25-.34-.39-.51-.62-1-1.26-.99-2.12,0-.73.03-1.45-.43-2.07,0-.31,0-.63,0-.94Z"/>
      <path class="cls-2" d="M90.48,52.12c.46.63.44,1.34.43,2.07,0,.85.48,1.5.99,2.12.11.13.22.26.34.39h-1.76v-4.58Z"/>
    </g>
    <g>
      <path class="cls-1" d="M134.4,21.5c.27,0,.55,0,.82,0,.43.22.89.4,1.28.68.59.42.94.96.74,1.76-.13.51-.12,1.06-.17,1.58-.16.21-.37.42-.53.67-.25.38-.42.84-1.05.7-.09-.02-.35.26-.38.43-.21.97.17,1.84.55,2.7.39.87.88,1.73,1.08,2.65.28,1.3,1,2.27,1.91,3.14.48.45,1.02.84,1.52,1.27.25.21.5.44.72.68.32.35.34.77.05,1.12-.18.22-.49.41-.77.44-.3.04-.41-.25-.4-.56,0-.1-.13-.23-.23-.32-.21-.17-.44-.31-.66-.48-.76-.59-1.52-1.18-2.23-1.74-.53,1.42-.27,2.8.17,4.17.2.61.35,1.24.49,1.87.11.45.18.92.25,1.38.28,1.78.72,3.54.71,5.36,0,.08.04.15.06.23.42,1.5.9,2.99,1.24,4.52.2.87.72,1.19,1.49,1.32.46.08.93.11,1.39.2.22.04.41.18.62.28v.35c-.39.27-.78.55-1.17.82h-1.06c-.34-.09-.67-.19-1.01-.28-.3-.08-.55-.19-.88.1-.38.33-1.12-.05-1.26-.56-.08-.3-.16-.6-.29-.89-1.07-2.38-2.03-4.78-2-7.46.01-1.07-.46-1.96-.96-3-.21,1.07-.63,1.86-1.27,2.56-.43.47-.81.99-1.16,1.52-.38.59-.67,1.24-1.05,1.83-.58.91-.94,1.88-1.07,2.95-.08.69.29,1.31.98,1.47.3.07.62.12.91.22.15.05.25.2.38.31-.12.13-.22.32-.37.39-.18.09-.41.12-.62.13-.96.05-1.87-.1-2.68-.65-.6.49-1.16.06-1.73-.06,0-.12,0-.23,0-.35.14-.55.21-1.12.42-1.63,1.01-2.47,1.91-5,3.46-7.21.53-.76.8-1.59.87-2.51.02-.31-.01-.44-.36-.52-.69-.16-.91-.69-.76-1.36.11-.5.25-1.11.08-1.55-.65-1.65-.43-3.29-.24-4.97.16-1.41.29-2.83.29-4.25,0-2.03,1.01-3.63,2.15-5.12.37-.49.42-.8.35-1.29-.17-1.29.18-2.35,1.37-3.03Z"/>
      <path class="cls-2" d="M126.77,55.29c.57.12,1.12.55,1.73.06.8.55,1.72.7,2.68.65.21-.01.44-.04.62-.13.15-.07.25-.26.37-.39-.13-.11-.24-.26-.38-.31-.29-.1-.61-.15-.91-.22-.69-.17-1.06-.78-.98-1.47.13-1.07.49-2.04,1.07-2.95.38-.59.67-1.24,1.05-1.83.35-.53.73-1.06,1.16-1.52.64-.7,1.06-1.49,1.27-2.56.5,1.03.98,1.93.96,3-.04,2.67.93,5.08,2,7.46.13.28.2.59.29.89.14.51.88.89,1.26.56.33-.29.58-.19.88-.1.34.09.67.19,1.01.28h-14.08v-1.41Z"/>
      <path class="cls-2" d="M141.91,56.7c.39-.27.78-.55,1.17-.82v.82h-1.17Z"/>
    </g>
  </g>
</svg>