<svg width="334" height="147" viewBox="0 0 334 147" fill="none" xmlns="http://www.w3.org/2000/svg">
<g clip-path="url(#clip0_222_30)">
<path d="M325.472 112.867C335.991 93.7911 332.036 74.0697 331.391 52.3572C330.906 35.9989 287.428 21.1473 266.065 14.7977C259.07 12.726 251.94 11.1117 244.729 9.92788C220.111 5.86521 198.991 3.28232 180.776 1.85635C171.601 1.12991 162.4 1.12991 153.225 1.85635C135.01 3.28232 113.89 5.83831 89.2716 9.92788C82.0611 11.1117 74.9312 12.726 67.9359 14.7977C46.5732 21.1742 3.12146 36.0258 2.61027 52.3841C1.96454 74.0966 -1.99051 93.818 8.52939 112.894C48.8601 121.907 99.8991 129.683 126.589 132.077C186.722 137.485 216.533 132.992 226.945 131.082C229.151 130.678 232.514 129.817 237.707 129.252C259.15 126.965 270.155 126.185 282.746 126.535C294.315 126.857 305.831 124.947 316.727 121.073C318.019 120.615 322.108 118.329 325.445 112.894L325.472 112.867Z" fill="black"/>
<path d="M229.662 65.2985C224.227 65.2985 212.927 64.8142 198.614 64.1685C171.144 62.9577 129.602 61.1551 94.7332 61.3972C94.0606 61.3972 93.3879 61.3972 92.7422 61.3972C41.6763 61.3972 30.4838 48.0523 30.0264 47.4604C29.5959 46.9223 29.7035 46.1421 30.2147 45.7116C30.7528 45.2811 31.5331 45.3887 31.9367 45.8999C32.0174 45.9806 34.8424 49.2899 43.8556 52.5186C52.2769 55.5319 67.9626 59.0834 94.7063 58.8951C129.656 58.6529 171.198 60.4825 198.695 61.6663C212.981 62.2851 224.254 62.7694 229.635 62.7694C242.496 62.7694 276.154 58.1686 290.549 56.1777C293.912 55.7203 296.118 55.4243 296.791 55.3436C300.288 54.9938 311.696 50.4738 311.965 46.5456C312.019 45.873 312.584 45.3618 313.283 45.3887C313.956 45.4425 314.467 46.0344 314.44 46.7071C314.01 52.9221 300.234 57.4422 297.033 57.792C296.387 57.8458 294.073 58.1686 290.871 58.626C276.45 60.5901 242.657 65.2178 229.635 65.2178L229.662 65.2985Z" fill="white" stroke="white" stroke-width="2.69051" stroke-miterlimit="10"/>
<path d="M71.2181 135.871C70.4379 135.871 69.6307 135.79 68.8236 135.629C66.3483 135.117 62.7699 134.283 59.918 133.046C58.0615 132.239 56.8508 131.055 56.3396 129.467C55.4787 126.831 57.0392 124.194 57.093 124.086C57.4427 123.494 58.1961 123.306 58.788 123.656C59.3799 124.006 59.5682 124.759 59.2185 125.351C59.2185 125.405 58.1692 127.154 58.6804 128.714C58.9494 129.575 59.7028 130.248 60.8597 130.759C63.5233 131.889 66.9133 132.696 69.281 133.18C73.0208 133.934 76.7606 132.427 78.8054 129.36L78.8861 129.252C79.2628 128.687 80.0161 128.526 80.608 128.876C81.173 129.252 81.3345 130.006 80.9847 130.597L80.8771 130.732C78.6978 133.987 75.0656 135.844 71.1912 135.844L71.2181 135.871Z" stroke="black" stroke-width="2.69051" stroke-miterlimit="10"/>
<path d="M162.372 145.583C158.148 145.583 154.031 145.583 151.233 145.475C143.727 145.26 141.009 138.372 140.632 134.767C140.552 134.095 141.063 133.476 141.736 133.395C142.435 133.314 143.027 133.826 143.108 134.498C143.135 134.848 144.103 142.785 151.314 143C159.143 143.242 177.358 143.027 179.537 143C179.941 142.785 182.066 141.305 181.501 134.713C181.447 134.041 181.959 133.422 182.631 133.368C183.304 133.314 183.923 133.826 183.977 134.498C184.784 143.996 180.56 145.314 180.075 145.422H179.806C179.806 145.422 170.793 145.556 162.426 145.556L162.372 145.583Z" stroke="black" stroke-width="2.69051" stroke-miterlimit="10"/>
<path d="M233.831 140.74C229.876 140.74 226.19 140.74 224.038 140.74C218.065 140.686 216.101 136.812 215.885 134.794C215.805 134.122 216.316 133.503 216.988 133.449C217.661 133.395 218.28 133.879 218.334 134.552C218.388 134.929 218.953 138.265 224.038 138.292C230.387 138.346 250.566 138.292 250.754 138.292C250.754 138.292 252.153 138.211 253.149 136.893C254.037 135.709 254.844 133.153 253.499 127.907C253.337 127.234 253.741 126.561 254.387 126.4C255.032 126.238 255.732 126.642 255.893 127.288C257.158 132.319 256.889 136.059 255.059 138.426C253.337 140.686 250.862 140.74 250.754 140.767C250.62 140.767 241.634 140.767 233.75 140.767L233.831 140.74Z" stroke="black" stroke-width="2.69051" stroke-miterlimit="10"/>
<path d="M285.704 135.871C280.754 135.871 277.445 134.767 275.884 132.588C274.7 130.947 274.835 129.09 275.131 128.256C275.346 127.611 276.046 127.261 276.691 127.476C277.337 127.691 277.687 128.391 277.472 129.037C277.472 129.117 277.149 130.194 277.902 131.189C278.655 132.211 280.619 133.422 285.704 133.422C289.041 133.422 291.785 133.315 293.884 133.153C295.579 132.992 296.87 131.593 296.87 129.898V127.611C296.87 126.938 297.435 126.373 298.108 126.373C298.78 126.373 299.345 126.938 299.345 127.611V129.898C299.345 132.911 297.085 135.359 294.099 135.628C291.946 135.817 289.121 135.924 285.704 135.924V135.871Z" stroke="black" stroke-width="2.69051" stroke-miterlimit="10"/>
<path d="M124.49 103.826C128.977 103.826 132.615 97.7553 132.615 90.2662C132.615 82.7771 128.977 76.7061 124.49 76.7061C120.002 76.7061 116.364 82.7771 116.364 90.2662C116.364 97.7553 120.002 103.826 124.49 103.826Z" fill="white" stroke="white" stroke-width="2.69051" stroke-miterlimit="10"/>
<path d="M221.887 104.446C226.375 104.446 230.012 98.3744 230.012 90.8854C230.012 83.3963 226.375 77.3252 221.887 77.3252C217.4 77.3252 213.762 83.3963 213.762 90.8854C213.762 98.3744 217.4 104.446 221.887 104.446Z" fill="white" stroke="white" stroke-width="2.69051" stroke-miterlimit="10"/>
<path d="M97.3164 107.029C109.451 113.513 135.656 125.378 170.767 125.055C207.896 124.705 235.044 110.876 246.936 103.881" stroke="white" stroke-width="2.69051" stroke-miterlimit="10" stroke-linecap="round"/>
</g>
<defs>
<clipPath id="clip0_222_30">
<rect width="334" height="146.929" fill="white"/>
</clipPath>
</defs>
</svg>
